<?xml version="1.0" encoding="UTF-8" standalone="no"?>
<!-- Created with Inkscape (http://www.inkscape.org/) -->

<svg
   xmlns:dc="http://purl.org/dc/elements/1.1/"
   xmlns:cc="http://creativecommons.org/ns#"
   xmlns:rdf="http://www.w3.org/1999/02/22-rdf-syntax-ns#"
   xmlns:svg="http://www.w3.org/2000/svg"
   xmlns="http://www.w3.org/2000/svg"
   xmlns:sodipodi="http://sodipodi.sourceforge.net/DTD/sodipodi-0.dtd"
   xmlns:inkscape="http://www.inkscape.org/namespaces/inkscape"
   width="144"
   height="48"
   viewBox="0 0 38.1 12.7"
   version="1.1"
   id="svg8"
   sodipodi:docname="localLoads.svg"
   inkscape:version="0.92.5 (2060ec1f9f, 2020-04-08)"
   inkscape:export-filename="C:\Users\badaf\Structural-Analysis\ico\Tools\toolTimeGraph.png"
   inkscape:export-xdpi="96"
   inkscape:export-ydpi="96">
  <defs
     id="defs2">
    <marker
       inkscape:stockid="Arrow2Send"
       orient="auto"
       refY="0.0"
       refX="0.0"
       id="marker9401"
       style="overflow:visible;"
       inkscape:isstock="true">
      <path
         id="path9399"
         style="fill-rule:evenodd;stroke-width:0.625;stroke-linejoin:round;stroke:#dd3f3f;stroke-opacity:1;fill:#dd3f3f;fill-opacity:1"
         d="M 8.7185878,4.0337352 L -2.2072895,0.016013256 L 8.7185884,-4.0017078 C 6.9730900,-1.6296469 6.9831476,1.6157441 8.7185878,4.0337352 z "
         transform="scale(0.3) rotate(180) translate(-2.3,0)" />
    </marker>
    <marker
       inkscape:isstock="true"
       style="overflow:visible;"
       id="marker9065"
       refX="0.0"
       refY="0.0"
       orient="auto"
       inkscape:stockid="Arrow2Send">
      <path
         transform="scale(0.3) rotate(180) translate(-2.3,0)"
         d="M 8.7185878,4.0337352 L -2.2072895,0.016013256 L 8.7185884,-4.0017078 C 6.9730900,-1.6296469 6.9831476,1.6157441 8.7185878,4.0337352 z "
         style="fill-rule:evenodd;stroke-width:0.625;stroke-linejoin:round;stroke:#dd3f3f;stroke-opacity:1;fill:#dd3f3f;fill-opacity:1"
         id="path9063" />
    </marker>
    <marker
       inkscape:isstock="true"
       style="overflow:visible;"
       id="marker6677"
       refX="0.0"
       refY="0.0"
       orient="auto"
       inkscape:stockid="Arrow2Send">
      <path
         transform="scale(0.3) rotate(180) translate(-2.3,0)"
         d="M 8.7185878,4.0337352 L -2.2072895,0.016013256 L 8.7185884,-4.0017078 C 6.9730900,-1.6296469 6.9831476,1.6157441 8.7185878,4.0337352 z "
         style="fill-rule:evenodd;stroke-width:0.625;stroke-linejoin:round;stroke:#c12828;stroke-opacity:1;fill:#c12828;fill-opacity:1"
         id="path6675" />
    </marker>
    <marker
       inkscape:stockid="Arrow1Send"
       orient="auto"
       refY="0.0"
       refX="0.0"
       id="Arrow1Send"
       style="overflow:visible;"
       inkscape:isstock="true">
      <path
         id="path872"
         d="M 0.0,0.0 L 5.0,-5.0 L -12.5,0.0 L 5.0,5.0 L 0.0,0.0 z "
         style="fill-rule:evenodd;stroke:#dd3f3f;stroke-width:1pt;stroke-opacity:1;fill:#dd3f3f;fill-opacity:1"
         transform="scale(0.2) rotate(180) translate(6,0)" />
    </marker>
    <marker
       inkscape:stockid="Arrow2Mend"
       orient="auto"
       refY="0.0"
       refX="0.0"
       id="Arrow2Mend"
       style="overflow:visible;"
       inkscape:isstock="true">
      <path
         id="path884"
         style="fill-rule:evenodd;stroke-width:0.625;stroke-linejoin:round;stroke:#dd3f3f;stroke-opacity:1;fill:#dd3f3f;fill-opacity:1"
         d="M 8.7185878,4.0337352 L -2.2072895,0.016013256 L 8.7185884,-4.0017078 C 6.9730900,-1.6296469 6.9831476,1.6157441 8.7185878,4.0337352 z "
         transform="scale(0.6) rotate(180) translate(0,0)" />
    </marker>
  </defs>
  <sodipodi:namedview
     id="base"
     pagecolor="#ffffff"
     bordercolor="#666666"
     borderopacity="1.0"
     inkscape:pageopacity="0.0"
     inkscape:pageshadow="2"
     inkscape:zoom="3.959798"
     inkscape:cx="97.96927"
     inkscape:cy="17.000574"
     inkscape:document-units="mm"
     inkscape:current-layer="layer1"
     showgrid="false"
     units="px"
     inkscape:snap-global="false"
     inkscape:window-width="1366"
     inkscape:window-height="705"
     inkscape:window-x="-8"
     inkscape:window-y="-8"
     inkscape:window-maximized="1">
    <sodipodi:guide
       position="0,0"
       orientation="0,48"
       id="guide832"
       inkscape:locked="false" />
    <sodipodi:guide
       position="12.7,0"
       orientation="-48,0"
       id="guide834"
       inkscape:locked="false" />
    <sodipodi:guide
       position="12.7,12.7"
       orientation="0,-48"
       id="guide836"
       inkscape:locked="false" />
    <sodipodi:guide
       position="0,12.7"
       orientation="48,0"
       id="guide838"
       inkscape:locked="false" />
    <sodipodi:guide
       position="0,0"
       orientation="0,96"
       id="guide944"
       inkscape:locked="false" />
    <sodipodi:guide
       position="25.4,0"
       orientation="-48,0"
       id="guide946"
       inkscape:locked="false" />
    <sodipodi:guide
       position="25.4,12.7"
       orientation="0,-96"
       id="guide948"
       inkscape:locked="false" />
    <sodipodi:guide
       position="0,17.103423"
       orientation="48,0"
       id="guide950"
       inkscape:locked="false" />
    <sodipodi:guide
       position="0,0"
       orientation="0,144"
       id="guide843"
       inkscape:locked="false" />
    <sodipodi:guide
       position="38.1,0"
       orientation="-48,0"
       id="guide845"
       inkscape:locked="false" />
    <sodipodi:guide
       position="38.1,12.7"
       orientation="0,-144"
       id="guide847"
       inkscape:locked="false" />
    <sodipodi:guide
       position="0,12.7"
       orientation="48,0"
       id="guide849"
       inkscape:locked="false" />
  </sodipodi:namedview>
  <metadata
     id="metadata5">
    <rdf:RDF>
      <cc:Work
         rdf:about="">
        <dc:format>image/svg+xml</dc:format>
        <dc:type
           rdf:resource="http://purl.org/dc/dcmitype/StillImage" />
        <dc:title></dc:title>
      </cc:Work>
    </rdf:RDF>
  </metadata>
  <g
     inkscape:label="Layer 1"
     inkscape:groupmode="layer"
     id="layer1"
     transform="translate(0,-284.3)">
    <path
       inkscape:connector-curvature="0"
       id="path9938"
       d="m 26.270695,286.59502 v 2.64584 h 1.894459 v 2.55746 h -0.861447 l 1.429369,2.4753 1.429372,-2.4753 h -0.861446 v -2.55746 h 2.071708 v 2.55746 h -0.861446 l 1.429369,2.4753 1.429369,-2.4753 h -0.861443 v -2.55746 h 2.07119 v 2.55746 h -0.861446 l 1.429369,2.4753 1.429371,-2.4753 h -0.861446 v -2.55746 h 1.894456 v -2.64584 z"
       style="opacity:1;fill:#c12828;fill-opacity:1;stroke:none;stroke-width:22.56304169;stroke-miterlimit:4;stroke-dasharray:none;stroke-opacity:0.8" />
    <g
       transform="translate(-0.29293139,0.28348206)"
       id="g1127"
       style="fill:#c12828;fill-opacity:1">
      <path
         inkscape:connector-curvature="0"
         id="path1121"
         d="m 0.67027073,293.47577 7.16687867,-4.66726 1.3855901,2.12767 -7.1668787,4.66725 z"
         style="opacity:1;fill:#c12828;fill-opacity:1;stroke:none;stroke-width:0.653;stroke-miterlimit:4;stroke-dasharray:none;stroke-opacity:1" />
      <path
         inkscape:connector-curvature="0"
         style="opacity:1;fill:#c12828;fill-opacity:1;stroke:none;stroke-width:2.46803141;stroke-miterlimit:4;stroke-dasharray:none;stroke-opacity:1"
         d="M 39.779297,10.425781 31.736328,15.662109 48,40.634766 V 23.048828 Z"
         transform="matrix(0.26458333,0,0,0.26458333,0,284.3)"
         id="path1123" />
      <path
         inkscape:connector-curvature="0"
         id="path1125"
         d="m 7.8371655,288.80854 0.5599123,-0.36463 1.3855901,2.12767 -0.5599123,0.36463 z"
         style="opacity:1;fill:#c12828;fill-opacity:1;stroke:none;stroke-width:0.35946465;stroke-miterlimit:4;stroke-dasharray:none;stroke-opacity:1" />
    </g>
    <g
       id="g998"
       transform="translate(-0.52916651)">
      <path
         style="opacity:1;fill:#dd3f3f;fill-opacity:1;stroke:none;stroke-width:0.653;stroke-miterlimit:4;stroke-dasharray:none;stroke-opacity:1"
         d="m 0.67027073,293.47577 7.16687867,-4.66726 1.3855901,2.12767 -7.1668787,4.66725 z"
         id="rect967"
         inkscape:connector-curvature="0" />
      <path
         id="rect969"
         transform="matrix(0.26458333,0,0,0.26458333,0,284.3)"
         d="M 39.779297,10.425781 31.736328,15.662109 48,40.634766 V 23.048828 Z"
         style="opacity:1;fill:#dd3f3f;fill-opacity:1;stroke:none;stroke-width:2.46803141;stroke-miterlimit:4;stroke-dasharray:none;stroke-opacity:1"
         inkscape:connector-curvature="0" />
      <path
         style="opacity:1;fill:#eea3a3;fill-opacity:1;stroke:none;stroke-width:0.35946465;stroke-miterlimit:4;stroke-dasharray:none;stroke-opacity:1"
         d="m 7.8371655,288.80854 0.5599123,-0.36463 1.3855901,2.12767 -0.5599123,0.36463 z"
         id="rect971"
         inkscape:connector-curvature="0" />
    </g>
    <rect
       style="opacity:1;fill:#eea3a3;fill-opacity:1;stroke:none;stroke-width:0.43129849;stroke-miterlimit:4;stroke-dasharray:none;stroke-opacity:1"
       id="rect1000"
       width="5.5236645"
       height="10.046535"
       x="13.462043"
       y="285.62668" />
    <rect
       y="285.63254"
       x="18.982002"
       height="10.046535"
       width="5.5236645"
       id="rect1004"
       style="opacity:1;fill:#dd3f3f;fill-opacity:1;stroke:none;stroke-width:0.43129849;stroke-miterlimit:4;stroke-dasharray:none;stroke-opacity:1" />
    <path
       style="fill:none;stroke:#dd3f3f;stroke-width:0.76499999;stroke-linecap:butt;stroke-linejoin:miter;stroke-miterlimit:4;stroke-dasharray:none;stroke-opacity:1"
       d="m 15.602219,287.34251 c 0,0 -1.804069,1.60362 -0.26727,2.80633 1.273771,0.99686 -1.465571,1.6652 -0.367496,3.0736 l 0.7684,0.98556"
       id="path1006"
       inkscape:connector-curvature="0"
       sodipodi:nodetypes="cssc" />
    <path
       sodipodi:nodetypes="cssc"
       inkscape:connector-curvature="0"
       id="path1008"
       d="m 17.807193,287.34251 c 0,0 -1.804069,1.60362 -0.26727,2.80633 1.273771,0.99686 -1.465571,1.6652 -0.367496,3.0736 l 0.7684,0.98556"
       style="fill:none;stroke:#dd3f3f;stroke-width:0.76499999;stroke-linecap:butt;stroke-linejoin:miter;stroke-miterlimit:4;stroke-dasharray:none;stroke-opacity:1" />
    <path
       inkscape:connector-curvature="0"
       id="path1129"
       d="m 20.993037,286.55834 c -0.08614,0 -0.155319,0.13183 -0.155319,0.29567 v 0.28275 l -0.205884,-0.20589 c -0.05837,-0.0584 -0.128725,-0.0906 -0.188197,-0.0916 -0.03568,-4.4e-4 -0.0674,0.0101 -0.09024,0.0329 -0.06091,0.0609 -0.03489,0.18528 0.0585,0.27867 l 0.425825,0.42582 v 0.16847 l -0.767527,-0.75392 0.280255,1.08633 -0.213819,-0.12358 -0.156,-0.5816 c -0.03418,-0.12757 -0.128816,-0.2123 -0.212005,-0.19001 -0.03119,0.008 -0.05623,0.0305 -0.07369,0.0617 -0.02887,0.052 -0.03611,0.12909 -0.01474,0.20883 l 0.07551,0.28116 -0.197266,-0.11382 c -0.14189,-0.0819 -0.290695,-0.088 -0.333767,-0.0134 -0.04307,0.0746 0.03657,0.20059 0.178447,0.28252 l 0.214953,0.12426 -0.281162,0.0753 c -0.07975,0.0214 -0.142962,0.0662 -0.173459,0.11723 -0.01836,0.0306 -0.02493,0.0636 -0.01655,0.0948 0.0223,0.0832 0.14293,0.12238 0.270505,0.0882 l 0.58137,-0.15577 0.140582,0.0812 -0.99223,0.2755 1.036671,0.28796 -0.193639,0.11179 -0.581597,-0.156 c -0.127573,-0.0342 -0.248439,0.005 -0.270732,0.0887 -0.0083,0.0312 -0.0014,0.0639 0.01678,0.0946 0.0306,0.051 0.09372,0.0959 0.173459,0.11722 l 0.281162,0.0755 -0.197267,0.11382 c -0.14189,0.0819 -0.221289,0.2077 -0.17822,0.2823 0.04307,0.0746 0.191876,0.0688 0.333766,-0.0131 l 0.214953,-0.12426 -0.07528,0.28139 c -0.02138,0.0797 -0.01401,0.15666 0.01497,0.2086 0.01731,0.0312 0.04225,0.0533 0.07347,0.0617 0.0832,0.0223 0.177593,-0.0624 0.211779,-0.19001 l 0.155773,-0.58137 0.175953,-0.10158 -0.268918,1.04166 0.767527,-0.75393 v 0.22357 l -0.425825,0.42583 c -0.09339,0.0934 -0.119407,0.21776 -0.0585,0.27866 0.02284,0.0228 0.05456,0.0333 0.09024,0.0329 0.05947,-10e-4 0.129828,-0.0332 0.188197,-0.0916 l 0.205884,-0.20588 v 0.22765 c 0,0.16384 0.06918,0.29567 0.155319,0.29567 0.08614,0 0.155546,-0.13183 0.155546,-0.29567 v -0.24829 l 0.205883,0.20588 c 0.05837,0.0584 0.128726,0.0905 0.188197,0.0914 0.03568,6.2e-4 0.06741,-0.01 0.09024,-0.0329 0.06091,-0.0609 0.03467,-0.18504 -0.05873,-0.27844 l -0.425598,-0.42559 v -0.20294 l 0.767527,0.7537 -0.257354,-0.997 0.107476,0.0621 0.155773,0.58137 c 0.03419,0.12758 0.128592,0.2123 0.211779,0.19001 0.03121,-0.008 0.05637,-0.0305 0.07369,-0.0617 0.02898,-0.0519 0.03634,-0.12887 0.01497,-0.2086 l -0.0755,-0.28139 0.262796,0.15169 c 0.141889,0.0819 0.290698,0.0878 0.333766,0.0131 h 2.26e-4 c 0.04307,-0.0746 -0.03654,-0.20038 -0.178447,-0.2823 l -0.244883,-0.14148 0.281162,-0.0753 c 0.07973,-0.0214 0.142857,-0.0662 0.173459,-0.11723 0.01821,-0.0307 0.02489,-0.0634 0.01655,-0.0945 -0.0223,-0.0832 -0.142932,-0.12284 -0.270505,-0.0887 l -0.581597,0.15577 -0.180941,-0.10452 1.08066,-0.30021 -1.036898,-0.28774 0.128336,-0.0742 0.581597,0.15578 c 0.127578,0.0342 0.248209,-0.005 0.270506,-0.0882 0.0084,-0.0312 0.0016,-0.0639 -0.01678,-0.0945 -0.0305,-0.0511 -0.09349,-0.0961 -0.173233,-0.11745 l -0.281162,-0.0753 0.26257,-0.15169 c 0.14189,-0.0819 0.221514,-0.20793 0.178446,-0.28252 -0.04307,-0.0746 -0.191876,-0.0686 -0.333766,0.0134 l -0.244883,0.14127 0.07528,-0.28117 c 0.02136,-0.0797 0.01413,-0.15682 -0.01474,-0.20883 -0.01746,-0.0311 -0.04229,-0.0533 -0.07346,-0.0617 -0.0832,-0.0223 -0.178051,0.0624 -0.212232,0.19001 l -0.155773,0.5816 -0.145796,0.0841 0.268918,-1.04166 -0.767527,0.75369 v -0.14783 l 0.425598,-0.4256 c 0.09339,-0.0934 0.119634,-0.21753 0.05873,-0.27844 -0.02284,-0.0229 -0.05456,-0.0335 -0.09024,-0.0329 -0.05947,8.8e-4 -0.129827,0.033 -0.188197,0.0914 l -0.205883,0.20588 v -0.30338 c 0,-0.16384 -0.06941,-0.29567 -0.155546,-0.29567 z m -0.420156,1.30354 0.264837,0.26031 v 0.23649 l -0.160535,-0.0927 z m 0.840538,0 -0.09274,0.35962 -0.172098,0.0993 v -0.19885 z m 0.06236,0.62876 0.358028,0.0993 -0.402016,0.11156 -0.160762,-0.0927 z m -1.009916,0.0122 0.183662,0.10611 -0.13922,0.0803 -0.357801,-0.0993 z m 0.37186,0.35621 v 0.19886 l -0.264837,0.26007 0.09274,-0.35961 z m 0.310865,0.0381 0.183662,0.10612 0.08117,0.31472 -0.264836,-0.26007 z"
       style="opacity:1;fill:#d23535;fill-opacity:1;stroke:none;stroke-width:0.33566326;stroke-miterlimit:4;stroke-dasharray:none;stroke-opacity:1" />
    <path
       style="opacity:1;fill:#eea3a3;fill-opacity:1;stroke:none;stroke-width:0.33566326;stroke-miterlimit:4;stroke-dasharray:none;stroke-opacity:1"
       d="m 20.993037,286.55834 c -0.08614,0 -0.155319,0.13183 -0.155319,0.29567 v 0.28275 l -0.205884,-0.20589 c -0.05837,-0.0584 -0.128725,-0.0906 -0.188197,-0.0916 -0.03568,-4.4e-4 -0.0674,0.0101 -0.09024,0.0329 -0.06091,0.0609 -0.03489,0.18528 0.0585,0.27867 l 0.425825,0.42582 v 0.16847 l -0.767527,-0.75392 0.280255,1.08633 -0.213819,-0.12358 -0.156,-0.5816 c -0.03418,-0.12757 -0.128816,-0.2123 -0.212005,-0.19001 -0.03119,0.008 -0.05623,0.0305 -0.07369,0.0617 -0.02887,0.052 -0.03611,0.12909 -0.01474,0.20883 l 0.07551,0.28116 -0.197266,-0.11382 c -0.14189,-0.0819 -0.290695,-0.088 -0.333767,-0.0134 -0.04307,0.0746 0.03657,0.20059 0.178447,0.28252 l 0.214953,0.12426 -0.281162,0.0753 c -0.07975,0.0214 -0.142962,0.0662 -0.173459,0.11723 -0.01836,0.0306 -0.02493,0.0636 -0.01655,0.0948 0.0223,0.0832 0.14293,0.12238 0.270505,0.0882 l 0.58137,-0.15577 0.140582,0.0812 -0.99223,0.2755 1.036671,0.28796 -0.193639,0.11179 -0.581597,-0.156 c -0.127573,-0.0342 -0.248439,0.005 -0.270732,0.0887 -0.0083,0.0312 -0.0014,0.0639 0.01678,0.0946 0.0306,0.051 0.09372,0.0959 0.173459,0.11722 l 0.281162,0.0755 -0.197267,0.11382 c -0.14189,0.0819 -0.221289,0.2077 -0.17822,0.2823 0.04307,0.0746 0.191876,0.0688 0.333766,-0.0131 l 0.214953,-0.12426 -0.07528,0.28139 c -0.02138,0.0797 -0.01401,0.15666 0.01497,0.2086 0.01731,0.0312 0.04225,0.0533 0.07347,0.0617 0.0832,0.0223 0.177593,-0.0624 0.211779,-0.19001 l 0.155773,-0.58137 0.175953,-0.10158 -0.268918,1.04166 0.767527,-0.75393 v 0.22357 l -0.425825,0.42583 c -0.09339,0.0934 -0.119407,0.21776 -0.0585,0.27866 0.02284,0.0228 0.05456,0.0333 0.09024,0.0329 0.05947,-10e-4 0.129828,-0.0332 0.188197,-0.0916 l 0.205884,-0.20588 v 0.22765 c 0,0.16384 0.06918,0.29567 0.155319,0.29567 0.08614,0 0.155546,-0.13183 0.155546,-0.29567 v -0.24829 l 0.205883,0.20588 c 0.05837,0.0584 0.128726,0.0905 0.188197,0.0914 0.03568,6.2e-4 0.06741,-0.01 0.09024,-0.0329 0.06091,-0.0609 0.03467,-0.18504 -0.05873,-0.27844 l -0.425598,-0.42559 v -0.20294 l 0.767527,0.7537 -0.257354,-0.997 0.107476,0.0621 0.155773,0.58137 c 0.03419,0.12758 0.128592,0.2123 0.211779,0.19001 0.03121,-0.008 0.05637,-0.0305 0.07369,-0.0617 0.02898,-0.0519 0.03634,-0.12887 0.01497,-0.2086 l -0.0755,-0.28139 0.262796,0.15169 c 0.141889,0.0819 0.290698,0.0878 0.333766,0.0131 h 2.26e-4 c 0.04307,-0.0746 -0.03654,-0.20038 -0.178447,-0.2823 l -0.244883,-0.14148 0.281162,-0.0753 c 0.07973,-0.0214 0.142857,-0.0662 0.173459,-0.11723 0.01821,-0.0307 0.02489,-0.0634 0.01655,-0.0945 -0.0223,-0.0832 -0.142932,-0.12284 -0.270505,-0.0887 l -0.581597,0.15577 -0.180941,-0.10452 1.08066,-0.30021 -1.036898,-0.28774 0.128336,-0.0742 0.581597,0.15578 c 0.127578,0.0342 0.248209,-0.005 0.270506,-0.0882 0.0084,-0.0312 0.0016,-0.0639 -0.01678,-0.0945 -0.0305,-0.0511 -0.09349,-0.0961 -0.173233,-0.11745 l -0.281162,-0.0753 0.26257,-0.15169 c 0.14189,-0.0819 0.221514,-0.20793 0.178446,-0.28252 -0.04307,-0.0746 -0.191876,-0.0686 -0.333766,0.0134 l -0.244883,0.14127 0.07528,-0.28117 c 0.02136,-0.0797 0.01413,-0.15682 -0.01474,-0.20883 -0.01746,-0.0311 -0.04229,-0.0533 -0.07346,-0.0617 -0.0832,-0.0223 -0.178051,0.0624 -0.212232,0.19001 l -0.155773,0.5816 -0.145796,0.0841 0.268918,-1.04166 -0.767527,0.75369 v -0.14783 l 0.425598,-0.4256 c 0.09339,-0.0934 0.119634,-0.21753 0.05873,-0.27844 -0.02284,-0.0229 -0.05456,-0.0335 -0.09024,-0.0329 -0.05947,8.8e-4 -0.129827,0.033 -0.188197,0.0914 l -0.205883,0.20588 v -0.30338 c 0,-0.16384 -0.06941,-0.29567 -0.155546,-0.29567 z m -0.420156,1.30354 0.264837,0.26031 v 0.23649 l -0.160535,-0.0927 z m 0.840538,0 -0.09274,0.35962 -0.172098,0.0993 v -0.19885 z m 0.06236,0.62876 0.358028,0.0993 -0.402016,0.11156 -0.160762,-0.0927 z m -1.009916,0.0122 0.183662,0.10611 -0.13922,0.0803 -0.357801,-0.0993 z m 0.37186,0.35621 v 0.19886 l -0.264837,0.26007 0.09274,-0.35961 z m 0.310865,0.0381 0.183662,0.10612 0.08117,0.31472 -0.264836,-0.26007 z"
       id="path1014"
       inkscape:connector-curvature="0" />
    <path
       inkscape:connector-curvature="0"
       id="path1070"
       d="m 22.410448,290.76333 c -0.08614,0 -0.155319,0.13183 -0.155319,0.29567 v 0.28275 l -0.205884,-0.20589 c -0.05837,-0.0584 -0.128725,-0.0906 -0.188197,-0.0916 -0.03568,-4.4e-4 -0.0674,0.0101 -0.09024,0.0329 -0.06091,0.0609 -0.03489,0.18528 0.0585,0.27867 l 0.425825,0.42582 v 0.16847 l -0.767527,-0.75392 0.280255,1.08633 -0.213819,-0.12358 -0.156,-0.5816 c -0.03418,-0.12757 -0.128816,-0.2123 -0.212005,-0.19001 -0.03119,0.008 -0.05623,0.0305 -0.07369,0.0617 -0.02887,0.052 -0.03611,0.12909 -0.01474,0.20883 l 0.07551,0.28116 -0.197266,-0.11382 c -0.14189,-0.0819 -0.290695,-0.088 -0.333767,-0.0134 -0.04307,0.0746 0.03657,0.20059 0.178447,0.28252 l 0.214953,0.12426 -0.281162,0.0753 c -0.07975,0.0214 -0.142962,0.0662 -0.173459,0.11723 -0.01836,0.0306 -0.02493,0.0636 -0.01655,0.0948 0.0223,0.0832 0.14293,0.12238 0.270505,0.0882 l 0.58137,-0.15577 0.140582,0.0812 -0.99223,0.2755 1.036671,0.28796 -0.193639,0.11179 -0.581597,-0.156 c -0.127573,-0.0342 -0.248439,0.005 -0.270732,0.0887 -0.0083,0.0312 -0.0014,0.0639 0.01678,0.0946 0.0306,0.051 0.09372,0.0959 0.173459,0.11722 l 0.281162,0.0755 -0.197267,0.11382 c -0.14189,0.0819 -0.221289,0.2077 -0.17822,0.2823 0.04307,0.0746 0.191876,0.0688 0.333766,-0.0131 l 0.214953,-0.12426 -0.07528,0.28139 c -0.02138,0.0797 -0.01401,0.15666 0.01497,0.2086 0.01731,0.0312 0.04225,0.0533 0.07347,0.0617 0.0832,0.0223 0.177593,-0.0624 0.211779,-0.19001 l 0.155773,-0.58137 0.175953,-0.10158 -0.268918,1.04166 0.767527,-0.75393 v 0.22357 l -0.425825,0.42583 c -0.09339,0.0934 -0.119407,0.21776 -0.0585,0.27866 0.02284,0.0228 0.05456,0.0333 0.09024,0.0329 0.05947,-10e-4 0.129828,-0.0332 0.188197,-0.0916 l 0.205884,-0.20588 v 0.22765 c 0,0.16384 0.06918,0.29567 0.155319,0.29567 0.08614,0 0.155546,-0.13183 0.155546,-0.29567 v -0.24829 l 0.205883,0.20588 c 0.05837,0.0584 0.128726,0.0905 0.188197,0.0914 0.03568,6.2e-4 0.06741,-0.01 0.09024,-0.0329 0.06091,-0.0609 0.03467,-0.18504 -0.05873,-0.27844 l -0.425598,-0.42559 v -0.20294 l 0.767527,0.7537 -0.257354,-0.997 0.107476,0.0621 0.155773,0.58137 c 0.03419,0.12758 0.128592,0.2123 0.211779,0.19001 0.03121,-0.008 0.05637,-0.0305 0.07369,-0.0617 0.02898,-0.0519 0.03634,-0.12887 0.01497,-0.2086 l -0.0755,-0.28139 0.262796,0.15169 c 0.141889,0.0819 0.290698,0.0878 0.333766,0.0131 h 2.26e-4 c 0.04307,-0.0746 -0.03654,-0.20038 -0.178447,-0.2823 l -0.244883,-0.14148 0.281162,-0.0753 c 0.07973,-0.0214 0.142857,-0.0662 0.173459,-0.11723 0.01821,-0.0307 0.02489,-0.0634 0.01655,-0.0945 -0.0223,-0.0832 -0.142932,-0.12284 -0.270505,-0.0887 l -0.581597,0.15577 -0.180941,-0.10452 1.08066,-0.30021 -1.036898,-0.28774 0.128336,-0.0742 0.581597,0.15578 c 0.127578,0.0342 0.248209,-0.005 0.270506,-0.0882 0.0084,-0.0312 0.0016,-0.0639 -0.01678,-0.0945 -0.0305,-0.0511 -0.09349,-0.0961 -0.173233,-0.11745 l -0.281162,-0.0753 0.26257,-0.15169 c 0.14189,-0.0819 0.221514,-0.20793 0.178446,-0.28252 -0.04307,-0.0746 -0.191876,-0.0686 -0.333766,0.0134 l -0.244883,0.14127 0.07528,-0.28117 c 0.02136,-0.0797 0.01413,-0.15682 -0.01474,-0.20883 -0.01746,-0.0311 -0.04229,-0.0533 -0.07346,-0.0617 -0.0832,-0.0223 -0.178051,0.0624 -0.212232,0.19001 l -0.155773,0.5816 -0.145796,0.0841 0.268918,-1.04166 -0.767527,0.75369 v -0.14783 l 0.425598,-0.4256 c 0.09339,-0.0934 0.119634,-0.21753 0.05873,-0.27844 -0.02284,-0.0229 -0.05456,-0.0335 -0.09024,-0.0329 -0.05947,8.8e-4 -0.129827,0.033 -0.188197,0.0914 l -0.205883,0.20588 v -0.30338 c 0,-0.16384 -0.06941,-0.29567 -0.155546,-0.29567 z m -0.420156,1.30354 0.264837,0.26031 v 0.23649 l -0.160535,-0.0927 z m 0.840538,0 -0.09274,0.35962 -0.172098,0.0993 v -0.19885 z m 0.06236,0.62876 0.358028,0.0993 -0.402016,0.11156 -0.160762,-0.0927 z m -1.009916,0.0122 0.183662,0.10611 -0.13922,0.0803 -0.357801,-0.0993 z m 0.37186,0.35621 v 0.19886 l -0.264837,0.26007 0.09274,-0.35961 z m 0.310865,0.0381 0.183662,0.10612 0.08117,0.31472 -0.264836,-0.26007 z"
       style="opacity:1;fill:#eea3a3;fill-opacity:1;stroke:none;stroke-width:0.33566326;stroke-miterlimit:4;stroke-dasharray:none;stroke-opacity:1" />
    <g
       id="g9942"
       transform="translate(-0.03340869,0.03340869)">
      <path
         inkscape:connector-curvature="0"
         id="rect851"
         d="m 26.13706,286.42798 v 2.64584 h 1.894459 v 2.55746 h -0.861447 l 1.429369,2.4753 1.429372,-2.4753 h -0.861446 v -2.55746 h 2.071708 v 2.55746 h -0.861446 l 1.429369,2.4753 1.429369,-2.4753 h -0.861443 v -2.55746 h 2.07119 v 2.55746 h -0.861446 l 1.429369,2.4753 1.429371,-2.4753 h -0.861446 v -2.55746 h 1.894456 v -2.64584 z"
         style="opacity:1;fill:#dd3f3f;fill-opacity:1;stroke:none;stroke-width:22.56304169;stroke-miterlimit:4;stroke-dasharray:none;stroke-opacity:0.8" />
      <path
         transform="matrix(0.26458333,0,0,0.26458333,0,284.3)"
         id="path9933"
         d="m 141.42188,12.392578 -11.23243,5.654297 v 9.662109 h -3.25586 l 5.40235,9.355469 5.40234,-9.355469 h -3.25586 v -9.666015 h 7.16016 v -5.296875 z m -19.06055,9.595703 -4.29297,2.160157 v 3.560546 h -3.25586 l 5.40234,9.355469 5.40235,-9.355469 h -3.25586 z m -11.36524,5.720703 -6.43554,3.240235 3.53125,6.115234 5.40234,-9.355469 z"
         style="fill:#e86565;fill-opacity:1;stroke:none;stroke-width:0.99999994px;stroke-linecap:butt;stroke-linejoin:miter;stroke-opacity:1"
         inkscape:connector-curvature="0" />
    </g>
  </g>
</svg>
