<?xml version="1.0" encoding="UTF-8" standalone="no"?>
<svg
   xmlns:dc="http://purl.org/dc/elements/1.1/"
   xmlns:cc="http://creativecommons.org/ns#"
   xmlns:rdf="http://www.w3.org/1999/02/22-rdf-syntax-ns#"
   xmlns:svg="http://www.w3.org/2000/svg"
   xmlns="http://www.w3.org/2000/svg"
   xmlns:sodipodi="http://sodipodi.sourceforge.net/DTD/sodipodi-0.dtd"
   xmlns:inkscape="http://www.inkscape.org/namespaces/inkscape"
   width="48"
   height="48"
   viewBox="0 0 12.7 12.7"
   version="1.1"
   id="svg8"
   sodipodi:docname="IconSize.svg"
   inkscape:version="1.0.1 (3bc2e813f5, 2020-09-07)"
   inkscape:export-filename="C:\Users\badaf\sd\ico\Tools\light\toolMeasure.png"
   inkscape:export-xdpi="64"
   inkscape:export-ydpi="64">
  <defs
     id="defs2">
    <inkscape:path-effect
       effect="fillet_chamfer"
       id="path-effect4350"
       is_visible="true"
       lpeversion="1"
       satellites_param="IF,0,0,1,0,0,0,1 @ F,0,0,1,0,0,0,1 @ F,0,0,1,0,0,0,1 @ F,0,0,1,0,0,0,1"
       unit="px"
       method="auto"
       mode="F"
       radius="3"
       chamfer_steps="1"
       flexible="false"
       use_knot_distance="true"
       apply_no_radius="true"
       apply_with_radius="true"
       only_selected="false"
       hide_knots="false" />
    <marker
       style="overflow:visible;"
       id="Arrow1Mend"
       refX="0.0"
       refY="0.0"
       orient="auto"
       inkscape:stockid="Arrow1Mend"
       inkscape:isstock="true">
      <path
         transform="scale(0.4) rotate(180) translate(10,0)"
         style="fill-rule:evenodd;stroke:none;stroke-width:1pt;stroke-opacity:1;fill:#ffffff;fill-opacity:0.988235"
         d="M 0.0,0.0 L 5.0,-5.0 L -12.5,0.0 L 5.0,5.0 L 0.0,0.0 z "
         id="path3483" />
    </marker>
    <marker
       style="overflow:visible"
       id="Arrow1Mstart"
       refX="0.0"
       refY="0.0"
       orient="auto"
       inkscape:stockid="Arrow1Mstart"
       inkscape:isstock="true">
      <path
         transform="scale(0.4) translate(10,0)"
         style="fill-rule:evenodd;stroke:none;stroke-width:1pt;stroke-opacity:1;fill:#ffffff;fill-opacity:0.988235"
         d="M 0.0,0.0 L 5.0,-5.0 L -12.5,0.0 L 5.0,5.0 L 0.0,0.0 z "
         id="path3480" />
    </marker>
    <marker
       style="overflow:visible"
       id="Arrow1Lstart"
       refX="0.0"
       refY="0.0"
       orient="auto"
       inkscape:stockid="Arrow1Lstart"
       inkscape:isstock="true">
      <path
         transform="scale(0.8) translate(12.5,0)"
         style="fill-rule:evenodd;stroke:#c12828;stroke-width:1pt;stroke-opacity:1;fill:#c12828;fill-opacity:1"
         d="M 0.0,0.0 L 5.0,-5.0 L -12.5,0.0 L 5.0,5.0 L 0.0,0.0 z "
         id="path3474" />
    </marker>
    <marker
       style="overflow:visible"
       id="DotS"
       refX="0.0"
       refY="0.0"
       orient="auto"
       inkscape:stockid="DotS"
       inkscape:isstock="true">
      <path
         transform="scale(0.2) translate(7.4, 1)"
         style="fill-rule:evenodd;stroke:#c12828;stroke-width:1pt;stroke-opacity:0.992157;fill:#c12828;fill-opacity:0.992157"
         d="M -2.5,-1.0 C -2.5,1.7600000 -4.7400000,4.0 -7.5,4.0 C -10.260000,4.0 -12.5,1.7600000 -12.5,-1.0 C -12.5,-3.7600000 -10.260000,-6.0 -7.5,-6.0 C -4.7400000,-6.0 -2.5,-3.7600000 -2.5,-1.0 z "
         id="path3541" />
    </marker>
    <marker
       style="overflow:visible"
       id="DotM"
       refX="0.0"
       refY="0.0"
       orient="auto"
       inkscape:stockid="DotM"
       inkscape:isstock="true">
      <path
         transform="scale(0.4) translate(7.4, 1)"
         style="fill-rule:evenodd;stroke:#e86565;stroke-width:1pt;stroke-opacity:1;fill:#e86565;fill-opacity:1"
         d="M -2.5,-1.0 C -2.5,1.7600000 -4.7400000,4.0 -7.5,4.0 C -10.260000,4.0 -12.5,1.7600000 -12.5,-1.0 C -12.5,-3.7600000 -10.260000,-6.0 -7.5,-6.0 C -4.7400000,-6.0 -2.5,-3.7600000 -2.5,-1.0 z "
         id="path3538" />
    </marker>
    <pattern
       patternUnits="userSpaceOnUse"
       width="4.4686753"
       height="4.465285"
       patternTransform="translate(-76.022283,58.570507)"
       id="pattern3453">
      <g
         id="g3451"
         transform="matrix(3.7795276,0,0,3.7795276,76.022283,-1133.0902)">
        <path
           id="rect2380"
           style="fill:#c12828;fill-opacity:1;stroke:none;stroke-width:1.05833;stroke-opacity:1"
           d="m -19.607513,299.79678 h 0.168905 v 1.18144 h -0.168905 z" />
        <path
           id="rect2382"
           style="fill:none;fill-opacity:1;stroke:none;stroke-width:1.05833;stroke-opacity:1"
           d="m -19.438608,299.79678 h 0.168906 v 1.18144 h -0.168906 z" />
        <path
           id="rect2384"
           style="fill:none;fill-opacity:1;stroke:none;stroke-width:1.05833;stroke-opacity:1"
           d="m -19.776419,299.79678 h 0.168906 v 1.18144 h -0.168906 z" />
        <path
           id="rect2386"
           style="fill:#c12828;fill-opacity:1;stroke:none;stroke-width:1.05833;stroke-opacity:1"
           d="m -19.945324,300.10983 h 0.168906 v 0.86839 h -0.168906 z" />
        <path
           id="rect2388"
           style="fill:#c12828;fill-opacity:1;stroke:none;stroke-width:1.05833;stroke-opacity:1"
           d="m -19.269703,300.10983 h 0.168906 v 0.86839 h -0.168906 z" />
        <path
           id="rect2404"
           style="fill:none;fill-opacity:1;stroke:none;stroke-width:1.05833;stroke-opacity:1"
           d="m -19.100798,299.79678 h 0.168906 v 1.18144 h -0.168906 z" />
        <path
           id="rect2406"
           style="fill:none;fill-opacity:1;stroke:none;stroke-width:1.05833;stroke-opacity:1"
           d="m -20.114229,299.79678 h 0.168905 v 1.18144 h -0.168905 z" />
      </g>
    </pattern>
  </defs>
  <sodipodi:namedview
     id="base"
     pagecolor="#ffffff"
     bordercolor="#666666"
     borderopacity="1.0"
     inkscape:pageopacity="0.0"
     inkscape:pageshadow="2"
     inkscape:zoom="7.1614629"
     inkscape:cx="27.941114"
     inkscape:cy="17.999586"
     inkscape:document-units="mm"
     inkscape:current-layer="g4407"
     showgrid="false"
     units="px"
     inkscape:snap-global="false"
     inkscape:window-width="828"
     inkscape:window-height="705"
     inkscape:window-x="530"
     inkscape:window-y="-8"
     inkscape:window-maximized="0"
     inkscape:document-rotation="0"
     inkscape:snap-intersection-paths="true"
     inkscape:object-paths="true" />
  <metadata
     id="metadata5">
    <rdf:RDF>
      <cc:Work
         rdf:about="">
        <dc:format>image/svg+xml</dc:format>
        <dc:type
           rdf:resource="http://purl.org/dc/dcmitype/StillImage" />
        <dc:title />
      </cc:Work>
    </rdf:RDF>
  </metadata>
  <g
     inkscape:label="Layer 1"
     inkscape:groupmode="layer"
     id="layer1"
     transform="translate(0,-284.3)">
    <g
       id="g10543"
       transform="translate(-20.359221,-0.20789612)">
      <path
         style="opacity:1;fill:#c12828;fill-opacity:1;stroke:none;stroke-width:24.4734;stroke-miterlimit:4;stroke-dasharray:none;stroke-opacity:0.8"
         d="m 0.33386414,286.38801 v 2.86987 H 2.3887258 v 2.774 H 1.4543407 l 1.5503928,2.68488 1.5503961,-2.68488 H 3.6207455 v -2.774 H 5.867864 v 2.774 H 4.9334798 l 1.5503927,2.68488 1.5503931,-2.68488 h -0.934381 v -2.774 h 2.2465565 v 2.774 H 8.412057 l 1.550392,2.68488 1.550397,-2.68488 h -0.934385 v -2.774 h 2.05486 v -2.86987 z"
         id="path9938"
         inkscape:connector-curvature="0" />
      <g
         transform="matrix(1.0846695,0,0,1.0846695,-28.197392,-24.436614)"
         id="g9942">
        <path
           style="opacity:1;fill:#dd3f3f;fill-opacity:1;stroke:none;stroke-width:22.563;stroke-miterlimit:4;stroke-dasharray:none;stroke-opacity:0.8"
           d="m 26.13706,286.42798 v 2.64584 h 1.894459 v 2.55746 h -0.861447 l 1.429369,2.4753 1.429372,-2.4753 h -0.861446 v -2.55746 h 2.071708 v 2.55746 h -0.861446 l 1.429369,2.4753 1.429369,-2.4753 h -0.861443 v -2.55746 h 2.07119 v 2.55746 h -0.861446 l 1.429369,2.4753 1.429371,-2.4753 h -0.861446 v -2.55746 h 1.894456 v -2.64584 z"
           id="rect851"
           inkscape:connector-curvature="0" />
        <path
           inkscape:connector-curvature="0"
           style="fill:#e86565;fill-opacity:1;stroke:none;stroke-width:1px;stroke-linecap:butt;stroke-linejoin:miter;stroke-opacity:1"
           d="m 141.42188,12.392578 -11.23243,5.654297 v 9.662109 h -3.25586 l 5.40235,9.355469 5.40234,-9.355469 h -3.25586 v -9.666015 h 7.16016 v -5.296875 z m -19.06055,9.595703 -4.29297,2.160157 v 3.560546 h -3.25586 l 5.40234,9.355469 5.40235,-9.355469 h -3.25586 z m -11.36524,5.720703 -6.43554,3.240235 3.53125,6.115234 5.40234,-9.355469 z"
           id="path9933"
           transform="matrix(0.26458333,0,0,0.26458333,0,284.3)" />
      </g>
    </g>
    <rect
       style="stroke:none;fill:url(#pattern3453)"
       transform="matrix(0.26458333,0,0,0.26458333,0,284.3)"
       width="4.4686753"
       height="4.465285"
       x="-76.022283"
       y="58.570507"
       id="rect3463" />
    <g
       id="g3470"
       transform="matrix(-1.0020497,0.67026994,-0.67026994,-1.0020497,207.72146,578.54649)"
       style="stroke-width:0.829493" />
    <g
       id="g4407"
       transform="translate(-0.07011104,-0.36083)">
      <g
         id="g1036"
         transform="matrix(1.5279937,0,0,1.5279937,-5.0102256,-153.87175)"
         style="stroke-width:0.654453">
        <g
           id="g1012"
           transform="matrix(-0.87450923,0.48500887,0.48500887,0.87450923,-128.32578,33.449503)"
           style="stroke-width:0.654453">
          <rect
             style="opacity:1;fill:#e86565;fill-opacity:1;stroke:none;stroke-width:0.173158"
             id="rect948"
             width="0.78826672"
             height="1.0568886"
             x="7.2316179"
             y="290.75647"
             ry="0" />
          <g
             id="g985"
             transform="matrix(0.54914579,0,0,0.54914579,-5.3138927,130.85592)"
             style="stroke-width:1.19176">
            <path
               id="rect3973"
               style="opacity:0.996;fill:#8d1d1d;fill-opacity:1;stroke:none;stroke-width:0.23649;stroke-miterlimit:4;stroke-dasharray:none;stroke-opacity:1"
               d="m 17.427102,292.67697 h 12.588454 v 3.03198 H 17.427102 Z"
               inkscape:path-effect="#path-effect4350"
               inkscape:original-d="m 17.427102,292.67697 h 12.588454 v 3.03198 H 17.427102 Z" />
            <g
               id="g4288"
               transform="matrix(0.56638041,0,0,1,22.632969,0.2053557)"
               style="opacity:0.996;fill:#ffa6a6;fill-opacity:1;stroke-width:1.58356">
              <path
                 id="path4270"
                 style="fill:#ffa6a6;fill-opacity:1;stroke:none;stroke-width:0.314238;stroke-miterlimit:4;stroke-dasharray:none;stroke-opacity:1"
                 d="m 1.4540833,295.25195 h 0.3356921 v -1.84631 H 1.4540833 Z" />
              <path
                 id="path4272"
                 style="fill:#ffa6a6;fill-opacity:1;stroke:none;stroke-width:0.314238;stroke-miterlimit:4;stroke-dasharray:none;stroke-opacity:1"
                 d="m 3.964791,295.25195 h 0.3356921 v -1.84631 H 3.964791 Z" />
              <path
                 id="path4274"
                 style="fill:#ffa6a6;fill-opacity:1;stroke:none;stroke-width:0.314238;stroke-miterlimit:4;stroke-dasharray:none;stroke-opacity:1"
                 d="m 6.4754993,295.25195 h 0.3356921 v -1.84631 H 6.4754993 Z" />
              <path
                 id="path4276"
                 style="fill:#ffa6a6;fill-opacity:1;stroke:none;stroke-width:0.314238;stroke-miterlimit:4;stroke-dasharray:none;stroke-opacity:1"
                 d="m 8.9862068,295.25195 h 0.3356921 v -1.84631 H 8.9862068 Z" />
              <path
                 id="path4278"
                 style="fill:#ffa6a6;fill-opacity:1;stroke:none;stroke-width:0.314238;stroke-miterlimit:4;stroke-dasharray:none;stroke-opacity:1"
                 d="m 11.496915,295.25195 h 0.335692 v -1.84631 h -0.335692 z" />
              <path
                 id="path4280"
                 style="fill:#ffa6a6;fill-opacity:1;stroke:none;stroke-width:0.314238;stroke-miterlimit:4;stroke-dasharray:none;stroke-opacity:1"
                 d="m 2.7094372,295.25195 h 0.3356921 v -1.14692 H 2.7094372 Z" />
              <path
                 id="path4282"
                 style="fill:#ffa6a6;fill-opacity:1;stroke:none;stroke-width:0.314238;stroke-miterlimit:4;stroke-dasharray:none;stroke-opacity:1"
                 d="m 5.2201455,295.25195 h 0.3356921 v -1.14692 H 5.2201455 Z" />
              <path
                 id="path4284"
                 style="fill:#ffa6a6;fill-opacity:1;stroke:none;stroke-width:0.314238;stroke-miterlimit:4;stroke-dasharray:none;stroke-opacity:1"
                 d="m 7.730853,295.25195 h 0.3356921 v -1.14692 H 7.730853 Z" />
              <path
                 id="path4286"
                 style="fill:#ffa6a6;fill-opacity:1;stroke:none;stroke-width:0.314238;stroke-miterlimit:4;stroke-dasharray:none;stroke-opacity:1"
                 d="m 10.241561,295.25195 h 0.335692 v -1.14692 h -0.335692 z" />
            </g>
          </g>
          <path
             style="fill:#dd3f3f;fill-opacity:1;stroke:none;stroke-width:0.173157px;stroke-linecap:butt;stroke-linejoin:miter;stroke-opacity:1"
             d="M 7.4862082,293.24324 H 3.0443336 c -0.6031518,-0.002 -0.7650111,-0.47783 -0.7687862,-0.77076 v -1.65655 c 0.035555,-3.56552 5.2046051,-3.62499 5.188677,0.11681 z"
             id="path934"
             sodipodi:nodetypes="cccccc" />
          <path
             id="path936"
             style="opacity:1;fill:#c22828;fill-opacity:1;stroke:none;stroke-width:0.654452"
             d="m 8.8652344,19.792969 c -0.3278517,1.037873 -0.5165659,2.194013 -0.5292969,3.470703 v 6.259766 c 0.00494,0.383337 0.088622,0.848869 0.28125,1.294921 A 3.464421,5.5853556 0 0 0 11.662109,25.273438 3.464421,5.5853556 0 0 0 8.8652344,19.792969 Z"
             transform="matrix(0.26458333,0,0,0.26458333,0.07011104,284.66083)" />
          <path
             id="rect942"
             style="opacity:1;fill:#c22828;fill-opacity:1;stroke:none;stroke-width:0.173157"
             d="m 3.5098919,292.61073 c -0.1156356,0 -0.2087726,0.0932 -0.2087726,0.20878 v 0.42374 h 3.5212318 v -0.42374 c 0,-0.11563 -0.093137,-0.20878 -0.2087726,-0.20878 z" />
          <path
             id="path987"
             style="opacity:1;fill:#c22828;fill-opacity:1;stroke:none;stroke-width:0.574204"
             d="m 18.954578,288.42261 a 2.7583981,2.7583981 0 0 0 -2.759109,2.75816 2.7583981,2.7583981 0 0 0 2.759109,2.75911 2.7583981,2.7583981 0 0 0 2.758168,-2.75911 2.7583981,2.7583981 0 0 0 -2.758168,-2.75816 z m -0.01506,1.14429 a 1.6146721,1.6146721 0 0 1 0.01506,0 1.6146721,1.6146721 0 0 1 1.613871,1.61387 1.6146721,1.6146721 0 0 1 -1.613871,1.61482 1.6146721,1.6146721 0 0 1 -1.614813,-1.61482 1.6146721,1.6146721 0 0 1 1.599756,-1.61387 z"
             transform="matrix(0.54914578,0,0,0.54914578,-5.3138928,130.85592)" />
        </g>
      </g>
    </g>
  </g>
</svg>
