<?xml version="1.0" encoding="UTF-8" standalone="no"?>
<!-- Created with Inkscape (http://www.inkscape.org/) -->

<svg
   xmlns:dc="http://purl.org/dc/elements/1.1/"
   xmlns:cc="http://creativecommons.org/ns#"
   xmlns:rdf="http://www.w3.org/1999/02/22-rdf-syntax-ns#"
   xmlns:svg="http://www.w3.org/2000/svg"
   xmlns="http://www.w3.org/2000/svg"
   xmlns:sodipodi="http://sodipodi.sourceforge.net/DTD/sodipodi-0.dtd"
   xmlns:inkscape="http://www.inkscape.org/namespaces/inkscape"
   width="96"
   height="32"
   viewBox="0 0 25.399999 8.4666668"
   version="1.1"
   id="svg8"
   inkscape:version="0.92.5 (2060ec1f9f, 2020-04-08)"
   sodipodi:docname="lines.svg">
  <defs
     id="defs2">
    <marker
       inkscape:stockid="DotS"
       orient="auto"
       refY="0"
       refX="0"
       id="marker10654"
       style="overflow:visible"
       inkscape:isstock="true">
      <path
         id="path10652"
         d="m -2.5,-1 c 0,2.76 -2.24,5 -5,5 -2.76,0 -5,-2.24 -5,-5 0,-2.76 2.24,-5 5,-5 2.76,0 5,2.24 5,5 z"
         style="fill:#bb2727;fill-opacity:1;fill-rule:evenodd;stroke:#bb2727;stroke-width:1.00000003pt;stroke-opacity:1"
         transform="matrix(0.2,0,0,0.2,1.48,0.2)"
         inkscape:connector-curvature="0" />
    </marker>
    <marker
       inkscape:stockid="DotS"
       orient="auto"
       refY="0"
       refX="0"
       id="marker10312"
       style="overflow:visible"
       inkscape:isstock="true">
      <path
         id="path10310"
         d="m -2.5,-1 c 0,2.76 -2.24,5 -5,5 -2.76,0 -5,-2.24 -5,-5 0,-2.76 2.24,-5 5,-5 2.76,0 5,2.24 5,5 z"
         style="fill:#bb2727;fill-opacity:1;fill-rule:evenodd;stroke:#bb2727;stroke-width:1.00000003pt;stroke-opacity:1"
         transform="matrix(0.2,0,0,0.2,1.48,0.2)"
         inkscape:connector-curvature="0" />
    </marker>
    <marker
       inkscape:isstock="true"
       style="overflow:visible"
       id="marker10152"
       refX="0"
       refY="0"
       orient="auto"
       inkscape:stockid="DotS"
       inkscape:collect="always">
      <path
         inkscape:connector-curvature="0"
         transform="matrix(0.2,0,0,0.2,1.48,0.2)"
         style="fill:#dd3f3f;fill-opacity:1;fill-rule:evenodd;stroke:#dd3f3f;stroke-width:1.00000003pt;stroke-opacity:1"
         d="m -2.5,-1 c 0,2.76 -2.24,5 -5,5 -2.76,0 -5,-2.24 -5,-5 0,-2.76 2.24,-5 5,-5 2.76,0 5,2.24 5,5 z"
         id="path10150" />
    </marker>
    <marker
       inkscape:isstock="true"
       style="overflow:visible"
       id="marker9926"
       refX="0"
       refY="0"
       orient="auto"
       inkscape:stockid="DotS"
       inkscape:collect="always">
      <path
         inkscape:connector-curvature="0"
         transform="matrix(0.2,0,0,0.2,1.48,0.2)"
         style="fill:#bb2727;fill-opacity:1;fill-rule:evenodd;stroke:#bb2727;stroke-width:1.00000003pt;stroke-opacity:1"
         d="m -2.5,-1 c 0,2.76 -2.24,5 -5,5 -2.76,0 -5,-2.24 -5,-5 0,-2.76 2.24,-5 5,-5 2.76,0 5,2.24 5,5 z"
         id="path9924" />
    </marker>
    <marker
       inkscape:stockid="DotS"
       orient="auto"
       refY="0"
       refX="0"
       id="marker9164"
       style="overflow:visible"
       inkscape:isstock="true"
       inkscape:collect="always">
      <path
         id="path9162"
         d="m -2.5,-1 c 0,2.76 -2.24,5 -5,5 -2.76,0 -5,-2.24 -5,-5 0,-2.76 2.24,-5 5,-5 2.76,0 5,2.24 5,5 z"
         style="fill:#dd3f3f;fill-opacity:1;fill-rule:evenodd;stroke:#dd3f3f;stroke-width:1.00000003pt;stroke-opacity:1"
         transform="matrix(0.2,0,0,0.2,1.48,0.2)"
         inkscape:connector-curvature="0" />
    </marker>
    <marker
       inkscape:stockid="DotS"
       orient="auto"
       refY="0"
       refX="0"
       id="marker8922"
       style="overflow:visible"
       inkscape:isstock="true">
      <path
         id="path8920"
         d="m -2.5,-1 c 0,2.76 -2.24,5 -5,5 -2.76,0 -5,-2.24 -5,-5 0,-2.76 2.24,-5 5,-5 2.76,0 5,2.24 5,5 z"
         style="fill:#bb2727;fill-opacity:1;fill-rule:evenodd;stroke:#bb2727;stroke-width:1.00000003pt;stroke-opacity:1"
         transform="matrix(0.2,0,0,0.2,1.48,0.2)"
         inkscape:connector-curvature="0" />
    </marker>
    <marker
       inkscape:stockid="DotS"
       orient="auto"
       refY="0"
       refX="0"
       id="marker4758"
       style="overflow:visible"
       inkscape:isstock="true">
      <path
         inkscape:connector-curvature="0"
         id="path4756"
         d="m -2.5,-1 c 0,2.76 -2.24,5 -5,5 -2.76,0 -5,-2.24 -5,-5 0,-2.76 2.24,-5 5,-5 2.76,0 5,2.24 5,5 z"
         style="fill:#ff0000;fill-opacity:1;fill-rule:evenodd;stroke:#ff0000;stroke-width:1.00000003pt;stroke-opacity:1"
         transform="matrix(0.2,0,0,0.2,1.48,0.2)" />
    </marker>
    <marker
       inkscape:isstock="true"
       style="overflow:visible"
       id="SquareL"
       refX="0"
       refY="0"
       orient="auto"
       inkscape:stockid="SquareL">
      <path
         inkscape:connector-curvature="0"
         transform="scale(0.8)"
         style="fill:#fcf8f5;fill-opacity:1;fill-rule:evenodd;stroke:#ff0000;stroke-width:1.00000003pt;stroke-opacity:1"
         d="M -5,-5 V 5 H 5 V -5 Z"
         id="path907" />
    </marker>
    <marker
       inkscape:isstock="true"
       style="overflow:visible"
       id="DotM"
       refX="0"
       refY="0"
       orient="auto"
       inkscape:stockid="DotM">
      <path
         inkscape:connector-curvature="0"
         transform="matrix(0.4,0,0,0.4,2.96,0.4)"
         style="fill:#dd3f3f;fill-opacity:1;fill-rule:evenodd;stroke:#dd3f3f;stroke-width:1.00000003pt;stroke-opacity:1"
         d="m -2.5,-1 c 0,2.76 -2.24,5 -5,5 -2.76,0 -5,-2.24 -5,-5 0,-2.76 2.24,-5 5,-5 2.76,0 5,2.24 5,5 z"
         id="path901" />
    </marker>
    <marker
       inkscape:isstock="true"
       style="overflow:visible"
       id="DotL"
       refX="0"
       refY="0"
       orient="auto"
       inkscape:stockid="DotL">
      <path
         inkscape:connector-curvature="0"
         transform="matrix(0.8,0,0,0.8,5.92,0.8)"
         style="fill:#000000;fill-opacity:1;fill-rule:evenodd;stroke:#000000;stroke-width:1.00000003pt;stroke-opacity:1"
         d="m -2.5,-1 c 0,2.76 -2.24,5 -5,5 -2.76,0 -5,-2.24 -5,-5 0,-2.76 2.24,-5 5,-5 2.76,0 5,2.24 5,5 z"
         id="path898" />
    </marker>
    <marker
       inkscape:isstock="true"
       style="overflow:visible"
       id="SquareS"
       refX="0"
       refY="0"
       orient="auto"
       inkscape:stockid="SquareS">
      <path
         inkscape:connector-curvature="0"
         transform="scale(0.2)"
         style="fill:#e8e8fc;fill-opacity:1;fill-rule:evenodd;stroke:#ff0000;stroke-width:1.00000003pt;stroke-opacity:1"
         d="M -5,-5 V 5 H 5 V -5 Z"
         id="path913" />
    </marker>
    <marker
       inkscape:isstock="true"
       style="overflow:visible"
       id="marker3800"
       refX="0"
       refY="0"
       orient="auto"
       inkscape:stockid="DotS">
      <path
         inkscape:connector-curvature="0"
         transform="matrix(0.2,0,0,0.2,1.48,0.2)"
         style="fill:#dd3f3f;fill-opacity:1;fill-rule:evenodd;stroke:#dd3f3f;stroke-width:1.00000003pt;stroke-opacity:1"
         d="m -2.5,-1 c 0,2.76 -2.24,5 -5,5 -2.76,0 -5,-2.24 -5,-5 0,-2.76 2.24,-5 5,-5 2.76,0 5,2.24 5,5 z"
         id="path3798" />
    </marker>
    <marker
       inkscape:isstock="true"
       style="overflow:visible"
       id="DotS"
       refX="0"
       refY="0"
       orient="auto"
       inkscape:stockid="DotS"
       inkscape:collect="always">
      <path
         inkscape:connector-curvature="0"
         transform="matrix(0.2,0,0,0.2,1.48,0.2)"
         style="fill:#dd3f3f;fill-opacity:1;fill-rule:evenodd;stroke:#dd3f3f;stroke-width:1.00000003pt;stroke-opacity:1"
         d="m -2.5,-1 c 0,2.76 -2.24,5 -5,5 -2.76,0 -5,-2.24 -5,-5 0,-2.76 2.24,-5 5,-5 2.76,0 5,2.24 5,5 z"
         id="path904" />
    </marker>
    <marker
       inkscape:isstock="true"
       style="overflow:visible"
       id="DotS-0"
       refX="0"
       refY="0"
       orient="auto"
       inkscape:stockid="DotS"
       inkscape:collect="always">
      <path
         inkscape:connector-curvature="0"
         transform="matrix(0.2,0,0,0.2,1.48,0.2)"
         style="fill:#dd3f3f;fill-opacity:1;fill-rule:evenodd;stroke:#dd3f3f;stroke-width:1.00000003pt;stroke-opacity:1"
         d="m -2.5,-1 c 0,2.76 -2.24,5 -5,5 -2.76,0 -5,-2.24 -5,-5 0,-2.76 2.24,-5 5,-5 2.76,0 5,2.24 5,5 z"
         id="path904-2" />
    </marker>
    <marker
       inkscape:stockid="DotS"
       orient="auto"
       refY="0"
       refX="0"
       id="marker8922-7"
       style="overflow:visible"
       inkscape:isstock="true">
      <path
         id="path8920-8"
         d="m -2.5,-1 c 0,2.76 -2.24,5 -5,5 -2.76,0 -5,-2.24 -5,-5 0,-2.76 2.24,-5 5,-5 2.76,0 5,2.24 5,5 z"
         style="fill:#bb2727;fill-opacity:1;fill-rule:evenodd;stroke:#bb2727;stroke-width:1.00000003pt;stroke-opacity:1"
         transform="matrix(0.2,0,0,0.2,1.48,0.2)"
         inkscape:connector-curvature="0" />
    </marker>
    <marker
       inkscape:stockid="DotS"
       orient="auto"
       refY="0"
       refX="0"
       id="marker8922-7-8"
       style="overflow:visible"
       inkscape:isstock="true">
      <path
         id="path8920-8-9"
         d="m -2.5,-1 c 0,2.76 -2.24,5 -5,5 -2.76,0 -5,-2.24 -5,-5 0,-2.76 2.24,-5 5,-5 2.76,0 5,2.24 5,5 z"
         style="fill:#bb2727;fill-opacity:1;fill-rule:evenodd;stroke:#bb2727;stroke-width:1.00000003pt;stroke-opacity:1"
         transform="matrix(0.2,0,0,0.2,1.48,0.2)"
         inkscape:connector-curvature="0" />
    </marker>
    <marker
       inkscape:isstock="true"
       style="overflow:visible"
       id="DotS-0-4"
       refX="0"
       refY="0"
       orient="auto"
       inkscape:stockid="DotS"
       inkscape:collect="always">
      <path
         inkscape:connector-curvature="0"
         transform="matrix(0.2,0,0,0.2,1.48,0.2)"
         style="fill:#dd3f3f;fill-opacity:1;fill-rule:evenodd;stroke:#dd3f3f;stroke-width:1.00000003pt;stroke-opacity:1"
         d="m -2.5,-1 c 0,2.76 -2.24,5 -5,5 -2.76,0 -5,-2.24 -5,-5 0,-2.76 2.24,-5 5,-5 2.76,0 5,2.24 5,5 z"
         id="path904-2-9" />
    </marker>
    <marker
       inkscape:stockid="DotS"
       orient="auto"
       refY="0"
       refX="0"
       id="marker8922-7-0"
       style="overflow:visible"
       inkscape:isstock="true">
      <path
         id="path8920-8-4"
         d="m -2.5,-1 c 0,2.76 -2.24,5 -5,5 -2.76,0 -5,-2.24 -5,-5 0,-2.76 2.24,-5 5,-5 2.76,0 5,2.24 5,5 z"
         style="fill:#bb2727;fill-opacity:1;fill-rule:evenodd;stroke:#bb2727;stroke-width:1.00000003pt;stroke-opacity:1"
         transform="matrix(0.2,0,0,0.2,1.48,0.2)"
         inkscape:connector-curvature="0" />
    </marker>
    <marker
       inkscape:isstock="true"
       style="overflow:visible"
       id="DotS-0-1"
       refX="0"
       refY="0"
       orient="auto"
       inkscape:stockid="DotS"
       inkscape:collect="always">
      <path
         inkscape:connector-curvature="0"
         transform="matrix(0.2,0,0,0.2,1.48,0.2)"
         style="fill:#dd3f3f;fill-opacity:1;fill-rule:evenodd;stroke:#dd3f3f;stroke-width:1.00000003pt;stroke-opacity:1"
         d="m -2.5,-1 c 0,2.76 -2.24,5 -5,5 -2.76,0 -5,-2.24 -5,-5 0,-2.76 2.24,-5 5,-5 2.76,0 5,2.24 5,5 z"
         id="path904-2-5" />
    </marker>
  </defs>
  <sodipodi:namedview
     id="base"
     pagecolor="#ffffff"
     bordercolor="#666666"
     borderopacity="1.0"
     inkscape:pageopacity="0.0"
     inkscape:pageshadow="2"
     inkscape:zoom="4"
     inkscape:cx="18.74874"
     inkscape:cy="-4.6804143"
     inkscape:document-units="mm"
     inkscape:current-layer="layer1"
     showgrid="false"
     units="px"
     inkscape:snap-global="true"
     inkscape:window-width="1366"
     inkscape:window-height="705"
     inkscape:window-x="-8"
     inkscape:window-y="-8"
     inkscape:window-maximized="1">
    <sodipodi:guide
       position="0,0"
       orientation="0,96"
       id="guide7706"
       inkscape:locked="false" />
    <sodipodi:guide
       position="25.4,0"
       orientation="-32,0"
       id="guide7708"
       inkscape:locked="false" />
    <sodipodi:guide
       position="25.4,8.4666666"
       orientation="0,-96"
       id="guide7710"
       inkscape:locked="false" />
    <sodipodi:guide
       position="0,8.4666666"
       orientation="32,0"
       id="guide7712"
       inkscape:locked="false" />
  </sodipodi:namedview>
  <metadata
     id="metadata5">
    <rdf:RDF>
      <cc:Work
         rdf:about="">
        <dc:format>image/svg+xml</dc:format>
        <dc:type
           rdf:resource="http://purl.org/dc/dcmitype/StillImage" />
        <dc:title />
      </cc:Work>
    </rdf:RDF>
  </metadata>
  <g
     inkscape:label="Layer 1"
     inkscape:groupmode="layer"
     id="layer1"
     transform="translate(0,-288.53332)">
    <rect
       style="opacity:1;fill:none;fill-opacity:1;stroke:#808080;stroke-width:0.10118076;stroke-miterlimit:4;stroke-dasharray:none;stroke-opacity:1"
       id="rect3999"
       width="8.4658194"
       height="8.4654856"
       x="16.935871"
       y="288.53452"
       inkscape:export-filename="C:\Users\badaf\ico\toolFixed.png"
       inkscape:export-xdpi="94.879379"
       inkscape:export-ydpi="94.879379" />
    <rect
       y="288.53452"
       x="8.4700642"
       height="8.4654856"
       width="8.4658194"
       id="rect4001"
       style="opacity:1;fill:none;fill-opacity:1;stroke:#808080;stroke-width:0.10118076;stroke-miterlimit:4;stroke-dasharray:none;stroke-opacity:1"
       inkscape:export-filename="C:\Users\badaf\ico\toolHinge.png"
       inkscape:export-xdpi="94.879379"
       inkscape:export-ydpi="94.879379" />
    <rect
       style="opacity:1;fill:none;fill-opacity:1;stroke:#808080;stroke-width:0.10118076;stroke-miterlimit:4;stroke-dasharray:none;stroke-opacity:1"
       id="rect4003"
       width="8.4658194"
       height="8.4654856"
       x="0"
       y="288.53452"
       inkscape:export-filename="C:\Users\badaf\ico\toolRoller.png"
       inkscape:export-xdpi="94.879379"
       inkscape:export-ydpi="94.879379" />
    <rect
       y="288.53452"
       x="8.4666662"
       height="8.4654856"
       width="8.4658194"
       id="rect4044"
       style="opacity:1;fill:none;fill-opacity:1;stroke:#808080;stroke-width:0.10118076;stroke-miterlimit:4;stroke-dasharray:none;stroke-opacity:1"
       inkscape:export-filename="C:\Users\badaf\ico\toolHinge.png"
       inkscape:export-xdpi="94.879379"
       inkscape:export-ydpi="94.879379" />
    <rect
       style="opacity:1;fill:none;fill-opacity:1;stroke:#808080;stroke-width:0.10118076;stroke-miterlimit:4;stroke-dasharray:none;stroke-opacity:1"
       id="rect4058"
       width="8.4658194"
       height="8.4654856"
       x="16.936724"
       y="288.53452"
       inkscape:export-filename="C:\Users\badaf\ico\toolFixed.png"
       inkscape:export-xdpi="94.879379"
       inkscape:export-ydpi="94.879379" />
    <rect
       style="opacity:1;fill:none;fill-opacity:1;stroke:#808080;stroke-width:0.10118076;stroke-miterlimit:4;stroke-dasharray:none;stroke-opacity:1"
       id="rect4060"
       width="8.4658194"
       height="8.4654856"
       x="16.933327"
       y="288.53452"
       inkscape:export-filename="C:\Users\badaf\ico\toolFixed.png"
       inkscape:export-xdpi="94.879379"
       inkscape:export-ydpi="94.879379" />
    <rect
       inkscape:export-ydpi="94.879379"
       inkscape:export-xdpi="94.879379"
       inkscape:export-filename="C:\Users\badaf\ico\toolIntHinge.png"
       y="302.26944"
       x="16.919153"
       height="8.4654856"
       width="8.4658194"
       id="rect4170"
       style="opacity:1;fill:none;fill-opacity:1;stroke:#808080;stroke-width:0.10118076;stroke-miterlimit:4;stroke-dasharray:none;stroke-opacity:1" />
    <path
       style="fill:#2631a2;fill-opacity:1;stroke:none;stroke-width:0.29576385px;stroke-linecap:butt;stroke-linejoin:miter;stroke-opacity:1"
       d="m 20.466902,308.74706 -1.26756,-2.16542 -1.690079,0.73942 0.475335,-4.17238 3.591418,2.27104 -1.47882,0.73941 1.233418,2.13448 z"
       id="path4751"
       inkscape:connector-curvature="0"
       sodipodi:nodetypes="cccccccc" />
    <path
       style="fill:#525fde;fill-opacity:1;stroke:none;stroke-width:0.29576385px;stroke-linecap:butt;stroke-linejoin:miter;stroke-opacity:1"
       d="m 17.720523,305.15564 2.376673,1.00349 1.233418,2.13448 -0.863712,0.45345 -1.26756,-2.16542 -1.690079,0.73942 z"
       id="path4753"
       inkscape:connector-curvature="0" />
    <path
       sodipodi:type="star"
       style="opacity:1;fill:#ffd42a;fill-opacity:1;stroke:none;stroke-width:0.11178477;stroke-miterlimit:4;stroke-dasharray:none;stroke-opacity:1"
       id="path4755"
       sodipodi:sides="5"
       sodipodi:cx="17.80584"
       sodipodi:cy="302.85562"
       sodipodi:r1="0.68659467"
       sodipodi:r2="0.34329736"
       sodipodi:arg1="0.39479112"
       sodipodi:arg2="1.0231097"
       inkscape:flatsided="false"
       inkscape:rounded="0"
       inkscape:randomized="0"
       d="m 18.439619,303.1197 -0.45502,0.029 -0.234061,0.39128 -0.168198,-0.42379 -0.444458,-0.10169 0.351068,-0.29093 -0.04063,-0.45413 0.38517,0.24399 0.419348,-0.17898 -0.11302,0.44172 z"
       inkscape:transform-center-x="0.01708982"
       inkscape:transform-center-y="0.04910386" />
    <rect
       style="opacity:1;fill:none;fill-opacity:1;stroke:#808080;stroke-width:0.10118076;stroke-miterlimit:4;stroke-dasharray:none;stroke-opacity:1"
       id="rect4771"
       width="8.4658194"
       height="8.4654856"
       x="25.385828"
       y="302.26944"
       inkscape:export-filename="C:\Users\badaf\ico\toolIntHinge.png"
       inkscape:export-xdpi="94.879379"
       inkscape:export-ydpi="94.879379" />
    <g
       id="g4823"
       transform="matrix(-0.43061112,0.17203877,0.18121567,0.40880465,-25.312323,179.72645)">
      <path
         sodipodi:nodetypes="ccccccccccccc"
         inkscape:connector-curvature="0"
         id="rect4798"
         transform="matrix(0.26458333,0,0,0.26458333,0,288.53332)"
         d="m 1.9570312,43.197266 v 19.33789 h 4.609375 L 9.155692,58.515625 h 15.40346 l 2.589286,4.019531 h 4.607421 V 43.197266 H 27.148438 L 24.827009,47.30413 9.5128348,47.214844 6.5664062,43.197266 Z"
         style="opacity:1;fill:#2631a2;fill-opacity:1;stroke:none;stroke-width:0.48895776;stroke-miterlimit:4;stroke-dasharray:none;stroke-opacity:1" />
      <path
         sodipodi:nodetypes="ccccc"
         inkscape:connector-curvature="0"
         id="rect4807"
         d="M 3.1574347,303.98215 H 5.6567883 L 5.3260591,316.8709 H 3.4881639 Z"
         style="opacity:1;fill:#2631a2;fill-opacity:1;stroke:none;stroke-width:0.1;stroke-miterlimit:4;stroke-dasharray:none;stroke-opacity:1" />
      <path
         inkscape:connector-curvature="0"
         id="path4812"
         d="m 3.3408691,309.62847 2.1381561,1.93771 -0.1529662,5.30472 H 3.488164 Z"
         style="fill:#525fde;fill-opacity:1;stroke:none;stroke-width:0.26458332px;stroke-linecap:butt;stroke-linejoin:miter;stroke-opacity:1" />
      <rect
         y="299.96259"
         x="0.51779783"
         height="5.1164837"
         width="1.2195638"
         id="rect4814"
         style="opacity:1;fill:#525fde;fill-opacity:1;stroke:none;stroke-width:0.1;stroke-miterlimit:4;stroke-dasharray:none;stroke-opacity:1" />
      <rect
         y="299.96259"
         x="7.1830239"
         height="5.1164837"
         width="1.2190467"
         id="rect4816"
         style="opacity:1;fill:#525fde;fill-opacity:1;stroke:none;stroke-width:0.1;stroke-miterlimit:4;stroke-dasharray:none;stroke-opacity:1" />
    </g>
    <rect
       style="opacity:1;fill:none;fill-opacity:1;stroke:#808080;stroke-width:0.10118076;stroke-miterlimit:4;stroke-dasharray:none;stroke-opacity:1"
       id="rect4825"
       width="8.4658194"
       height="8.4654856"
       x="8.4524918"
       y="302.26944"
       inkscape:export-filename="C:\Users\badaf\Structural-Analysis\ico\cursors\drawLine.png"
       inkscape:export-xdpi="94.879379"
       inkscape:export-ydpi="94.879379" />
    <g
       inkscape:export-ydpi="99.734657"
       inkscape:export-xdpi="99.734657"
       transform="matrix(0.38231335,-0.12943509,0.12943509,0.38231335,-29.270298,197.00055)"
       id="g4630"
       inkscape:export-filename="C:\Users\badaf\Structural-Analysis\ico\cursors\drawLine.png">
      <path
         style="opacity:0.98999999;fill:#4949b3;fill-opacity:1;stroke:#000000;stroke-width:0.07808951;stroke-miterlimit:4;stroke-dasharray:none;stroke-opacity:1"
         d="m 10.286519,279.4433 c 0.906781,0.11698 1.675502,0.47728 2.09028,1.46137 0.120131,0.22753 0.07069,0.29717 -0.06476,0.50983 l -8.7799435,13.78413 c -0.4540732,-1.05896 -1.1526003,-1.97649 -3.2039381,-2.11139 l 9.3408774,-13.38709 c 0.2194652,-0.2373 0.3545982,-0.25603 0.6175022,-0.25687 z"
         id="rect3675"
         inkscape:connector-curvature="0"
         sodipodi:nodetypes="cccccccc" />
      <path
         style="opacity:0.98999999;fill:#fac904;fill-opacity:1;stroke:#000000;stroke-width:0.07808951;stroke-miterlimit:4;stroke-dasharray:none;stroke-opacity:1"
         d="m 0.32816464,293.08722 c 1.79544716,0.0353 2.66941176,0.91742 3.20393876,2.11139 l -3.56980005,1.8584 z"
         id="rect3677"
         inkscape:connector-curvature="0"
         sodipodi:nodetypes="cccc" />
      <path
         sodipodi:nodetypes="cccc"
         inkscape:connector-curvature="0"
         id="path3680"
         d="m 0.17748367,295.02801 c 0.48148426,-0.19018 1.39233293,0.19447 1.69435273,0.99316 l -1.90953305,1.03584 z"
         style="opacity:0.98999999;fill:#1a1a1a;fill-opacity:1;stroke:#000000;stroke-width:0.07808951;stroke-miterlimit:4;stroke-dasharray:none;stroke-opacity:1" />
      <path
         sodipodi:nodetypes="ccccc"
         inkscape:connector-curvature="0"
         id="path3683"
         d="m 10.719313,279.56527 c 0.445653,0.2125 1.009572,0.2514 1.314522,0.88843 l -8.8333281,13.97413 c -0.4053839,-0.5629 -0.9529764,-1.00545 -1.8641717,-1.29478 z"
         style="opacity:0.98999999;fill:#6363f0;fill-opacity:0.99215686;stroke:none;stroke-width:0.07808951;stroke-miterlimit:4;stroke-dasharray:none;stroke-opacity:1" />
    </g>
    <path
       sodipodi:nodetypes="cccc"
       inkscape:connector-curvature="0"
       id="path8918"
       d="m 0.99218748,290.11196 0.93114582,2.85691 4.7473748,-0.56127 1.2628488,3.48453"
       style="fill:none;stroke:#bb2727;stroke-width:1;stroke-linecap:butt;stroke-linejoin:miter;stroke-miterlimit:4;stroke-dasharray:none;stroke-opacity:1;marker-mid:url(#marker8922)" />
    <path
       style="fill:none;stroke:#dd3f3f;stroke-width:1;stroke-linecap:butt;stroke-linejoin:miter;stroke-miterlimit:4;stroke-dasharray:none;stroke-opacity:1;marker-mid:url(#DotS)"
       d="m 0.46302083,289.58279 0.93114577,2.85691 4.7473748,-0.56127 1.2628488,3.48453"
       id="path7714"
       inkscape:connector-curvature="0"
       sodipodi:nodetypes="cccc" />
    <path
       style="fill:none;stroke:#bb2727;stroke-width:1;stroke-linecap:butt;stroke-linejoin:miter;stroke-miterlimit:4;stroke-dasharray:none;stroke-opacity:1;marker-mid:url(#marker9926)"
       d="m 9.9256714,295.63108 0.3698796,-2.66221 c 1.518034,-3.79484 3.104644,-3.74947 4.747375,-0.56127 l 1.403165,2.6894"
       id="path9922"
       inkscape:connector-curvature="0"
       sodipodi:nodetypes="cccc" />
    <path
       sodipodi:nodetypes="cccc"
       inkscape:connector-curvature="0"
       id="path9160"
       d="m 9.3965047,295.10191 0.3698796,-2.66221 c 1.5180337,-3.79484 3.1046437,-3.74947 4.7473747,-0.56127 l 1.403165,2.6894"
       style="fill:none;stroke:#dd3f3f;stroke-width:1;stroke-linecap:butt;stroke-linejoin:miter;stroke-miterlimit:4;stroke-dasharray:none;stroke-opacity:1;marker-mid:url(#marker9164)" />
    <rect
       inkscape:export-ydpi="94.879379"
       inkscape:export-xdpi="94.879379"
       inkscape:export-filename="C:\Users\badaf\ico\toolHinge.png"
       style="opacity:1;fill:none;fill-opacity:1;stroke:#808080;stroke-width:0.10118076;stroke-miterlimit:4;stroke-dasharray:none;stroke-opacity:1"
       id="rect10144"
       width="8.4658194"
       height="8.4654856"
       x="16.936724"
       y="288.53452" />
    <path
       sodipodi:nodetypes="cccc"
       inkscape:connector-curvature="0"
       id="path10650"
       d="m 18.39233,295.63107 0.36988,-2.66221 c -0.399626,-3.90637 5.115846,-3.90637 4.747374,-0.56127 l 1.403165,2.6894"
       style="fill:none;stroke:#bb2727;stroke-width:1;stroke-linecap:butt;stroke-linejoin:miter;stroke-miterlimit:4;stroke-dasharray:none;stroke-opacity:1;marker-mid:url(#marker10654)" />
    <path
       style="fill:none;stroke:#dd3f3f;stroke-width:1;stroke-linecap:butt;stroke-linejoin:miter;stroke-miterlimit:4;stroke-dasharray:none;stroke-opacity:1;marker-mid:url(#marker10152)"
       d="m 17.863163,295.1019 0.36988,-2.66221 c -0.399626,-3.90637 5.115846,-3.90637 4.747374,-0.56127 l 1.403165,2.6894"
       id="path10148"
       inkscape:connector-curvature="0"
       sodipodi:nodetypes="cccc" />
    <path
       sodipodi:nodetypes="cccc"
       inkscape:connector-curvature="0"
       id="path8918-0"
       d="m 12.639759,303.08231 0.510568,1.5665 2.603087,-0.30775 0.692447,1.91064"
       style="fill:none;stroke:#bb2727;stroke-width:0.54832131;stroke-linecap:butt;stroke-linejoin:miter;stroke-miterlimit:4;stroke-dasharray:none;stroke-opacity:1;marker-mid:url(#marker8922-7)"
       inkscape:export-filename="C:\Users\badaf\Structural-Analysis\ico\cursors\drawLine.png"
       inkscape:export-xdpi="99.734657"
       inkscape:export-ydpi="99.734657" />
    <path
       style="fill:none;stroke:#dd3f3f;stroke-width:0.54832131;stroke-linecap:butt;stroke-linejoin:miter;stroke-miterlimit:4;stroke-dasharray:none;stroke-opacity:1;marker-mid:url(#DotS-0)"
       d="m 12.349606,302.79216 0.510567,1.5665 2.603087,-0.30776 0.692447,1.91065"
       id="path7714-9"
       inkscape:connector-curvature="0"
       sodipodi:nodetypes="cccc"
       inkscape:export-filename="C:\Users\badaf\Structural-Analysis\ico\cursors\drawLine.png"
       inkscape:export-xdpi="99.734657"
       inkscape:export-ydpi="99.734657" />
    <path
       sodipodi:nodetypes="cccc"
       inkscape:connector-curvature="0"
       id="path8918-0-8"
       d="m 21.606354,307.48762 0.454868,1.3956 2.319106,-0.27417 0.616905,1.7022"
       style="fill:none;stroke:#bb2727;stroke-width:0.48850274;stroke-linecap:butt;stroke-linejoin:miter;stroke-miterlimit:4;stroke-dasharray:none;stroke-opacity:1;marker-mid:url(#marker8922-7-8)" />
    <path
       style="fill:none;stroke:#dd3f3f;stroke-width:0.48850274;stroke-linecap:butt;stroke-linejoin:miter;stroke-miterlimit:4;stroke-dasharray:none;stroke-opacity:1;marker-mid:url(#DotS-0-4)"
       d="m 21.347855,307.22911 0.454867,1.39562 2.319106,-0.2742 0.616905,1.70221"
       id="path7714-9-3"
       inkscape:connector-curvature="0"
       sodipodi:nodetypes="cccc" />
    <path
       sodipodi:nodetypes="cccc"
       inkscape:connector-curvature="0"
       id="path8918-0-9"
       d="m 30.608214,308.05669 0.428636,1.31513 2.185355,-0.25836 0.581329,1.60402"
       style="fill:none;stroke:#bb2727;stroke-width:0.46032947;stroke-linecap:butt;stroke-linejoin:miter;stroke-miterlimit:4;stroke-dasharray:none;stroke-opacity:1;marker-mid:url(#marker8922-7-0)" />
    <path
       style="fill:none;stroke:#dd3f3f;stroke-width:0.46032947;stroke-linecap:butt;stroke-linejoin:miter;stroke-miterlimit:4;stroke-dasharray:none;stroke-opacity:1;marker-mid:url(#DotS-0-1)"
       d="m 30.364623,307.81311 0.428635,1.31511 2.185356,-0.25836 0.581326,1.60404"
       id="path7714-9-37"
       inkscape:connector-curvature="0"
       sodipodi:nodetypes="cccc" />
  </g>
</svg>
