<?xml version="1.0" encoding="UTF-8" standalone="no"?>
<!-- Created with Inkscape (http://www.inkscape.org/) -->

<svg
   xmlns:dc="http://purl.org/dc/elements/1.1/"
   xmlns:cc="http://creativecommons.org/ns#"
   xmlns:rdf="http://www.w3.org/1999/02/22-rdf-syntax-ns#"
   xmlns:svg="http://www.w3.org/2000/svg"
   xmlns="http://www.w3.org/2000/svg"
   xmlns:sodipodi="http://sodipodi.sourceforge.net/DTD/sodipodi-0.dtd"
   xmlns:inkscape="http://www.inkscape.org/namespaces/inkscape"
   width="160"
   height="32"
   viewBox="0 0 42.333332 8.4666668"
   version="1.1"
   id="svg8"
   inkscape:version="0.92.5 (2060ec1f9f, 2020-04-08)"
   sodipodi:docname="OTHERS.svg">
  <defs
     id="defs2">
    <marker
       inkscape:isstock="true"
       style="overflow:visible;"
       id="marker23879"
       refX="0.0"
       refY="0.0"
       orient="auto"
       inkscape:stockid="Arrow2Send">
      <path
         transform="scale(0.3) rotate(180) translate(-2.3,0)"
         d="M 8.7185878,4.0337352 L -2.2072895,0.016013256 L 8.7185884,-4.0017078 C 6.9730900,-1.6296469 6.9831476,1.6157441 8.7185878,4.0337352 z "
         style="fill-rule:evenodd;stroke-width:0.625;stroke-linejoin:round;stroke:#dd3f3f;stroke-opacity:1;fill:#dd3f3f;fill-opacity:1"
         id="path23877" />
    </marker>
    <marker
       inkscape:stockid="Arrow1Mend"
       orient="auto"
       refY="0.0"
       refX="0.0"
       id="Arrow1Mend"
       style="overflow:visible;"
       inkscape:isstock="true">
      <path
         id="path18230"
         d="M 0.0,0.0 L 5.0,-5.0 L -12.5,0.0 L 5.0,5.0 L 0.0,0.0 z "
         style="fill-rule:evenodd;stroke:#e36c6c;stroke-width:1pt;stroke-opacity:1;fill:#e36c6c;fill-opacity:1"
         transform="scale(0.4) rotate(180) translate(10,0)" />
    </marker>
    <marker
       inkscape:stockid="DotS"
       orient="auto"
       refY="0.0"
       refX="0.0"
       id="marker20333"
       style="overflow:visible"
       inkscape:isstock="true">
      <path
         id="path18288"
         d="M -2.5,-1.0 C -2.5,1.7600000 -4.7400000,4.0 -7.5,4.0 C -10.260000,4.0 -12.5,1.7600000 -12.5,-1.0 C -12.5,-3.7600000 -10.260000,-6.0 -7.5,-6.0 C -4.7400000,-6.0 -2.5,-3.7600000 -2.5,-1.0 z "
         style="fill-rule:evenodd;stroke:#e36c6c;stroke-width:1pt;stroke-opacity:1;fill:#e36c6c;fill-opacity:1"
         transform="scale(0.2) translate(7.4, 1)" />
    </marker>
    <marker
       style="overflow:visible"
       id="DistanceStart"
       refX="0.0"
       refY="0.0"
       orient="auto"
       inkscape:stockid="DistanceStart"
       inkscape:isstock="true">
      <g
         id="g2300"
         style="stroke:#000000;stroke-opacity:1;fill:#000000;fill-opacity:1">
        <path
           style="fill:#000000;stroke:#000000;stroke-width:1.15;stroke-linecap:square;stroke-opacity:1;fill-opacity:1"
           d="M 0,0 L 2,0"
           id="path2306" />
        <path
           style="fill:#000000;fill-rule:evenodd;stroke:#000000;stroke-opacity:1;fill-opacity:1"
           d="M 0,0 L 13,4 L 9,0 13,-4 L 0,0 z "
           id="path2302" />
        <path
           style="fill:#000000;stroke:#000000;stroke-width:1;stroke-linecap:square;stroke-opacity:1;fill-opacity:1"
           d="M 0,-4 L 0,40"
           id="path2304" />
      </g>
    </marker>
    <marker
       inkscape:stockid="SquareS"
       orient="auto"
       refY="0.0"
       refX="0.0"
       id="marker19584"
       style="overflow:visible"
       inkscape:isstock="true">
      <path
         id="path18297"
         d="M -5.0,-5.0 L -5.0,5.0 L 5.0,5.0 L 5.0,-5.0 L -5.0,-5.0 z "
         style="fill-rule:evenodd;stroke:#000000;stroke-width:1pt;stroke-opacity:1;fill:#000000;fill-opacity:1"
         transform="scale(0.2)" />
    </marker>
    <marker
       inkscape:stockid="EmptyTriangleInS"
       orient="auto"
       refY="0.0"
       refX="0.0"
       id="EmptyTriangleInS"
       style="overflow:visible"
       inkscape:isstock="true">
      <path
         id="path18378"
         d="M 5.77,0.0 L -2.88,5.0 L -2.88,-5.0 L 5.77,0.0 z "
         style="fill-rule:evenodd;fill:#ffffff;stroke:#000000;stroke-width:1pt;stroke-opacity:1"
         transform="scale(-0.2) translate(-3.0,0)" />
    </marker>
    <marker
       inkscape:stockid="Arrow2Sstart"
       orient="auto"
       refY="0.0"
       refX="0.0"
       id="Arrow2Sstart"
       style="overflow:visible"
       inkscape:isstock="true">
      <path
         id="path18251"
         style="fill-rule:evenodd;stroke-width:0.625;stroke-linejoin:round;stroke:#e36c6c;stroke-opacity:1;fill:#e36c6c;fill-opacity:1"
         d="M 8.7185878,4.0337352 L -2.2072895,0.016013256 L 8.7185884,-4.0017078 C 6.9730900,-1.6296469 6.9831476,1.6157441 8.7185878,4.0337352 z "
         transform="scale(0.3) translate(-2.3,0)" />
    </marker>
    <marker
       inkscape:stockid="Arrow1Sstart"
       orient="auto"
       refY="0.0"
       refX="0.0"
       id="Arrow1Sstart"
       style="overflow:visible"
       inkscape:isstock="true">
      <path
         id="path18233"
         d="M 0.0,0.0 L 5.0,-5.0 L -12.5,0.0 L 5.0,5.0 L 0.0,0.0 z "
         style="fill-rule:evenodd;stroke:#000000;stroke-width:1pt;stroke-opacity:1;fill:#000000;fill-opacity:1"
         transform="scale(0.2) translate(6,0)" />
    </marker>
    <marker
       inkscape:stockid="Arrow1Mstart"
       orient="auto"
       refY="0.0"
       refX="0.0"
       id="Arrow1Mstart"
       style="overflow:visible"
       inkscape:isstock="true">
      <path
         id="path18227"
         d="M 0.0,0.0 L 5.0,-5.0 L -12.5,0.0 L 5.0,5.0 L 0.0,0.0 z "
         style="fill-rule:evenodd;stroke:#000000;stroke-width:1pt;stroke-opacity:1;fill:#000000;fill-opacity:1"
         transform="scale(0.4) translate(10,0)" />
    </marker>
    <marker
       inkscape:stockid="DotS"
       orient="auto"
       refY="0"
       refX="0"
       id="marker4758"
       style="overflow:visible"
       inkscape:isstock="true">
      <path
         inkscape:connector-curvature="0"
         id="path4756"
         d="m -2.5,-1 c 0,2.76 -2.24,5 -5,5 -2.76,0 -5,-2.24 -5,-5 0,-2.76 2.24,-5 5,-5 2.76,0 5,2.24 5,5 z"
         style="fill:#ff0000;fill-opacity:1;fill-rule:evenodd;stroke:#ff0000;stroke-width:1.00000003pt;stroke-opacity:1"
         transform="matrix(0.2,0,0,0.2,1.48,0.2)" />
    </marker>
    <marker
       inkscape:isstock="true"
       style="overflow:visible"
       id="SquareL"
       refX="0"
       refY="0"
       orient="auto"
       inkscape:stockid="SquareL">
      <path
         inkscape:connector-curvature="0"
         transform="scale(0.8)"
         style="fill:#fcf8f5;fill-opacity:1;fill-rule:evenodd;stroke:#ff0000;stroke-width:1.00000003pt;stroke-opacity:1"
         d="M -5,-5 V 5 H 5 V -5 Z"
         id="path907" />
    </marker>
    <marker
       inkscape:isstock="true"
       style="overflow:visible"
       id="DotM"
       refX="0"
       refY="0"
       orient="auto"
       inkscape:stockid="DotM">
      <path
         inkscape:connector-curvature="0"
         transform="matrix(0.4,0,0,0.4,2.96,0.4)"
         style="fill:#000000;fill-opacity:1;fill-rule:evenodd;stroke:#000000;stroke-width:1.00000003pt;stroke-opacity:1"
         d="m -2.5,-1 c 0,2.76 -2.24,5 -5,5 -2.76,0 -5,-2.24 -5,-5 0,-2.76 2.24,-5 5,-5 2.76,0 5,2.24 5,5 z"
         id="path901" />
    </marker>
    <marker
       inkscape:isstock="true"
       style="overflow:visible"
       id="DotL"
       refX="0"
       refY="0"
       orient="auto"
       inkscape:stockid="DotL">
      <path
         inkscape:connector-curvature="0"
         transform="matrix(0.8,0,0,0.8,5.92,0.8)"
         style="fill:#000000;fill-opacity:1;fill-rule:evenodd;stroke:#000000;stroke-width:1.00000003pt;stroke-opacity:1"
         d="m -2.5,-1 c 0,2.76 -2.24,5 -5,5 -2.76,0 -5,-2.24 -5,-5 0,-2.76 2.24,-5 5,-5 2.76,0 5,2.24 5,5 z"
         id="path898" />
    </marker>
    <marker
       inkscape:isstock="true"
       style="overflow:visible"
       id="SquareS"
       refX="0"
       refY="0"
       orient="auto"
       inkscape:stockid="SquareS">
      <path
         inkscape:connector-curvature="0"
         transform="scale(0.2)"
         style="fill:#e8e8fc;fill-opacity:1;fill-rule:evenodd;stroke:#ff0000;stroke-width:1.00000003pt;stroke-opacity:1"
         d="M -5,-5 V 5 H 5 V -5 Z"
         id="path913" />
    </marker>
    <marker
       inkscape:isstock="true"
       style="overflow:visible"
       id="marker3800"
       refX="0"
       refY="0"
       orient="auto"
       inkscape:stockid="DotS">
      <path
         inkscape:connector-curvature="0"
         transform="matrix(0.2,0,0,0.2,1.48,0.2)"
         style="fill:#000000;fill-opacity:1;fill-rule:evenodd;stroke:#000000;stroke-width:1.00000003pt;stroke-opacity:1"
         d="m -2.5,-1 c 0,2.76 -2.24,5 -5,5 -2.76,0 -5,-2.24 -5,-5 0,-2.76 2.24,-5 5,-5 2.76,0 5,2.24 5,5 z"
         id="path3798" />
    </marker>
    <marker
       inkscape:isstock="true"
       style="overflow:visible"
       id="DotS"
       refX="0"
       refY="0"
       orient="auto"
       inkscape:stockid="DotS">
      <path
         inkscape:connector-curvature="0"
         transform="matrix(0.2,0,0,0.2,1.48,0.2)"
         style="fill:#000000;fill-opacity:1;fill-rule:evenodd;stroke:#000000;stroke-width:1.00000003pt;stroke-opacity:1"
         d="m -2.5,-1 c 0,2.76 -2.24,5 -5,5 -2.76,0 -5,-2.24 -5,-5 0,-2.76 2.24,-5 5,-5 2.76,0 5,2.24 5,5 z"
         id="path904" />
    </marker>
  </defs>
  <sodipodi:namedview
     id="base"
     pagecolor="#ffffff"
     bordercolor="#666666"
     borderopacity="1.0"
     inkscape:pageopacity="0.0"
     inkscape:pageshadow="2"
     inkscape:zoom="0.99999999"
     inkscape:cx="193.64811"
     inkscape:cy="159.00269"
     inkscape:document-units="mm"
     inkscape:current-layer="layer1"
     showgrid="false"
     units="px"
     inkscape:snap-global="false"
     inkscape:window-width="1366"
     inkscape:window-height="705"
     inkscape:window-x="-8"
     inkscape:window-y="-8"
     inkscape:window-maximized="1"
     showguides="false">
    <sodipodi:guide
       position="0,0"
       orientation="0,160"
       inkscape:locked="false"
       id="guide3975" />
    <sodipodi:guide
       position="42.333333,0"
       orientation="-32,0"
       inkscape:locked="false"
       id="guide3977" />
    <sodipodi:guide
       position="42.333333,8.4666666"
       orientation="0,-160"
       inkscape:locked="false"
       id="guide3979" />
    <sodipodi:guide
       position="0,8.4666666"
       orientation="32,0"
       inkscape:locked="false"
       id="guide3981" />
  </sodipodi:namedview>
  <metadata
     id="metadata5">
    <rdf:RDF>
      <cc:Work
         rdf:about="">
        <dc:format>image/svg+xml</dc:format>
        <dc:type
           rdf:resource="http://purl.org/dc/dcmitype/StillImage" />
        <dc:title></dc:title>
      </cc:Work>
    </rdf:RDF>
  </metadata>
  <g
     inkscape:label="Layer 1"
     inkscape:groupmode="layer"
     id="layer1"
     transform="translate(0,-288.53332)">
    <rect
       inkscape:export-ydpi="94.879379"
       inkscape:export-xdpi="94.879379"
       inkscape:export-filename="C:\Users\badaf\ico\toolIntHinge.png"
       y="302.26944"
       x="16.919153"
       height="8.4654856"
       width="8.4658194"
       id="rect4170"
       style="opacity:1;fill:none;fill-opacity:1;stroke:#808080;stroke-width:0.10118076;stroke-miterlimit:4;stroke-dasharray:none;stroke-opacity:1" />
    <path
       style="fill:#2631a2;fill-opacity:1;stroke:none;stroke-width:0.29576385px;stroke-linecap:butt;stroke-linejoin:miter;stroke-opacity:1"
       d="m 20.466902,308.74706 -1.26756,-2.16542 -1.690079,0.73942 0.475335,-4.17238 3.591418,2.27104 -1.47882,0.73941 1.233418,2.13448 z"
       id="path4751"
       inkscape:connector-curvature="0"
       sodipodi:nodetypes="cccccccc" />
    <path
       style="fill:#525fde;fill-opacity:1;stroke:none;stroke-width:0.29576385px;stroke-linecap:butt;stroke-linejoin:miter;stroke-opacity:1"
       d="m 17.720523,305.15564 2.376673,1.00349 1.233418,2.13448 -0.863712,0.45345 -1.26756,-2.16542 -1.690079,0.73942 z"
       id="path4753"
       inkscape:connector-curvature="0" />
    <path
       sodipodi:type="star"
       style="opacity:1;fill:#ffd42a;fill-opacity:1;stroke:none;stroke-width:0.11178477;stroke-miterlimit:4;stroke-dasharray:none;stroke-opacity:1"
       id="path4755"
       sodipodi:sides="5"
       sodipodi:cx="17.805839"
       sodipodi:cy="302.85562"
       sodipodi:r1="0.68659467"
       sodipodi:r2="0.34329736"
       sodipodi:arg1="0.39479112"
       sodipodi:arg2="1.0231097"
       inkscape:flatsided="false"
       inkscape:rounded="0"
       inkscape:randomized="0"
       d="m 18.439619,303.1197 -0.45502,0.029 -0.234061,0.39128 -0.168198,-0.42379 -0.444458,-0.10169 0.351068,-0.29093 -0.04063,-0.45413 0.38517,0.24399 0.419348,-0.17898 -0.11302,0.44172 z"
       inkscape:transform-center-x="0.01708982"
       inkscape:transform-center-y="0.04910386" />
    <rect
       inkscape:export-ydpi="94.879379"
       inkscape:export-xdpi="94.879379"
       inkscape:export-filename="C:\Users\badaf\ico\toolRoller.png"
       y="309.59366"
       x="21.067846"
       height="0.55388629"
       width="4.0354571"
       id="rect4759"
       style="opacity:1;fill:#dd3f3f;fill-opacity:1;stroke:none;stroke-width:0.0478498;stroke-miterlimit:4;stroke-dasharray:none;stroke-opacity:1" />
    <rect
       inkscape:export-ydpi="94.879379"
       inkscape:export-xdpi="94.879379"
       inkscape:export-filename="C:\Users\badaf\ico\toolRoller.png"
       y="306.5144"
       x="21.956326"
       height="0.32781023"
       width="2.1929371"
       id="rect4761"
       style="opacity:1;fill:#dd3f3f;fill-opacity:1;stroke:none;stroke-width:0.05911563;stroke-miterlimit:4;stroke-dasharray:none;stroke-opacity:1" />
    <path
       inkscape:export-ydpi="94.879379"
       inkscape:export-xdpi="94.879379"
       inkscape:export-filename="C:\Users\badaf\ico\toolRoller.png"
       inkscape:connector-curvature="0"
       id="path4763"
       d="m 22.819934,309.59359 0.655621,0.55389 h 1.627747 l -1.672962,-0.56519 z"
       style="fill:#b92929;fill-opacity:1;stroke:none;stroke-width:0.12660256px;stroke-linecap:butt;stroke-linejoin:miter;stroke-opacity:1" />
    <g
       inkscape:export-ydpi="94.879379"
       inkscape:export-xdpi="94.879379"
       inkscape:export-filename="C:\Users\badaf\ico\toolRoller.png"
       transform="matrix(0.64676092,0,0,0.64676092,20.281943,118.73152)"
       id="g4769">
      <circle
         style="opacity:1;fill:#dd3f3f;fill-opacity:1;stroke:none;stroke-width:0.1;stroke-miterlimit:4;stroke-dasharray:none;stroke-opacity:1"
         id="circle4765"
         cx="4.2758555"
         cy="292.99347"
         r="2.1497395" />
      <path
         style="fill:#e36c6c;fill-opacity:1;stroke:none;stroke-width:0.26458332px;stroke-linecap:butt;stroke-linejoin:miter;stroke-opacity:1"
         d="m 2.190414,292.43272 a 2.1497395,2.1497395 0 0 0 0.08443,1.37848 2.1497395,2.1497395 0 0 0 2.8060604,1.16996 2.1497395,2.1497395 0 0 0 1.2187373,-1.30507 l 0.00131,-0.0145 -3.9742443,-1.27656 z"
         id="path4767"
         inkscape:connector-curvature="0" />
    </g>
    <rect
       style="opacity:1;fill:none;fill-opacity:1;stroke:#808080;stroke-width:0.10118076;stroke-miterlimit:4;stroke-dasharray:none;stroke-opacity:1"
       id="rect4771"
       width="8.4658194"
       height="8.4654856"
       x="25.385828"
       y="302.26944"
       inkscape:export-filename="C:\Users\badaf\ico\toolIntHinge.png"
       inkscape:export-xdpi="94.879379"
       inkscape:export-ydpi="94.879379" />
    <rect
       style="opacity:1;fill:#dd3f3f;fill-opacity:1;stroke:none;stroke-width:0.0478498;stroke-miterlimit:4;stroke-dasharray:none;stroke-opacity:1"
       id="rect4779"
       width="4.0354571"
       height="0.55388629"
       x="29.816189"
       y="310.18103"
       inkscape:export-filename="C:\Users\badaf\ico\toolRoller.png"
       inkscape:export-xdpi="94.879379"
       inkscape:export-ydpi="94.879379" />
    <rect
       style="opacity:1;fill:#dd3f3f;fill-opacity:1;stroke:none;stroke-width:0.05911563;stroke-miterlimit:4;stroke-dasharray:none;stroke-opacity:1"
       id="rect4781"
       width="2.1929371"
       height="0.32781023"
       x="30.704668"
       y="307.10178"
       inkscape:export-filename="C:\Users\badaf\ico\toolRoller.png"
       inkscape:export-xdpi="94.879379"
       inkscape:export-ydpi="94.879379" />
    <path
       style="fill:#b92929;fill-opacity:1;stroke:none;stroke-width:0.12660256px;stroke-linecap:butt;stroke-linejoin:miter;stroke-opacity:1"
       d="m 31.568274,310.18097 0.655621,0.55389 h 1.627747 l -1.672962,-0.56519 z"
       id="path4783"
       inkscape:connector-curvature="0"
       inkscape:export-filename="C:\Users\badaf\ico\toolRoller.png"
       inkscape:export-xdpi="94.879379"
       inkscape:export-ydpi="94.879379" />
    <g
       id="g4789"
       transform="matrix(0.64676092,0,0,0.64676092,29.030283,119.3189)"
       inkscape:export-filename="C:\Users\badaf\ico\toolRoller.png"
       inkscape:export-xdpi="94.879379"
       inkscape:export-ydpi="94.879379">
      <circle
         r="2.1497395"
         cy="292.99347"
         cx="4.2758555"
         id="circle4785"
         style="opacity:1;fill:#dd3f3f;fill-opacity:1;stroke:none;stroke-width:0.1;stroke-miterlimit:4;stroke-dasharray:none;stroke-opacity:1" />
      <path
         inkscape:connector-curvature="0"
         id="path4787"
         d="m 2.190414,292.43272 a 2.1497395,2.1497395 0 0 0 0.08443,1.37848 2.1497395,2.1497395 0 0 0 2.8060604,1.16996 2.1497395,2.1497395 0 0 0 1.2187373,-1.30507 l 0.00131,-0.0145 -3.9742443,-1.27656 z"
         style="fill:#e36c6c;fill-opacity:1;stroke:none;stroke-width:0.26458332px;stroke-linecap:butt;stroke-linejoin:miter;stroke-opacity:1" />
    </g>
    <g
       id="g4823"
       transform="matrix(-0.43061112,0.17203877,0.18121567,0.40880465,-25.312323,179.72645)">
      <path
         sodipodi:nodetypes="ccccccccccccc"
         inkscape:connector-curvature="0"
         id="rect4798"
         transform="matrix(0.26458333,0,0,0.26458333,0,288.53332)"
         d="m 1.9570312,43.197266 v 19.33789 h 4.609375 L 9.155692,58.515625 h 15.40346 l 2.589286,4.019531 h 4.607421 V 43.197266 H 27.148438 L 24.827009,47.30413 9.5128348,47.214844 6.5664062,43.197266 Z"
         style="opacity:1;fill:#2631a2;fill-opacity:1;stroke:none;stroke-width:0.48895776;stroke-miterlimit:4;stroke-dasharray:none;stroke-opacity:1" />
      <path
         sodipodi:nodetypes="ccccc"
         inkscape:connector-curvature="0"
         id="rect4807"
         d="M 3.1574347,303.98215 H 5.6567883 L 5.3260591,316.8709 H 3.4881639 Z"
         style="opacity:1;fill:#2631a2;fill-opacity:1;stroke:none;stroke-width:0.1;stroke-miterlimit:4;stroke-dasharray:none;stroke-opacity:1" />
      <path
         inkscape:connector-curvature="0"
         id="path4812"
         d="m 3.3408691,309.62847 2.1381561,1.93771 -0.1529662,5.30472 H 3.488164 Z"
         style="fill:#525fde;fill-opacity:1;stroke:none;stroke-width:0.26458332px;stroke-linecap:butt;stroke-linejoin:miter;stroke-opacity:1" />
      <rect
         y="299.96259"
         x="0.51779783"
         height="5.1164837"
         width="1.2195638"
         id="rect4814"
         style="opacity:1;fill:#525fde;fill-opacity:1;stroke:none;stroke-width:0.1;stroke-miterlimit:4;stroke-dasharray:none;stroke-opacity:1" />
      <rect
         y="299.96259"
         x="7.1830239"
         height="5.1164837"
         width="1.2190467"
         id="rect4816"
         style="opacity:1;fill:#525fde;fill-opacity:1;stroke:none;stroke-width:0.1;stroke-miterlimit:4;stroke-dasharray:none;stroke-opacity:1" />
    </g>
    <rect
       style="opacity:1;fill:none;fill-opacity:1;stroke:#808080;stroke-width:0.10118076;stroke-miterlimit:4;stroke-dasharray:none;stroke-opacity:1"
       id="rect4825"
       width="8.4658194"
       height="8.4654856"
       x="8.4524918"
       y="302.26944"
       inkscape:export-filename="C:\Users\badaf\ico\toolIntHinge.png"
       inkscape:export-xdpi="94.879379"
       inkscape:export-ydpi="94.879379" />
    <rect
       style="opacity:1;fill:#dd3f3f;fill-opacity:1;stroke:none;stroke-width:0.06226924;stroke-miterlimit:4;stroke-dasharray:none;stroke-opacity:1"
       id="rect4833"
       width="5.2515335"
       height="0.72079873"
       x="11.291555"
       y="306.59271"
       inkscape:export-filename="C:\Users\badaf\ico\toolRoller.png"
       inkscape:export-xdpi="94.879379"
       inkscape:export-ydpi="94.879379" />
    <rect
       style="opacity:1;fill:#dd3f3f;fill-opacity:1;stroke:none;stroke-width:0.07693;stroke-miterlimit:4;stroke-dasharray:none;stroke-opacity:1"
       id="rect4835"
       width="2.8537741"
       height="0.42659512"
       x="12.447773"
       y="302.58554"
       inkscape:export-filename="C:\Users\badaf\ico\toolRoller.png"
       inkscape:export-xdpi="94.879379"
       inkscape:export-ydpi="94.879379" />
    <path
       style="fill:#b92929;fill-opacity:1;stroke:none;stroke-width:0.16475397px;stroke-linecap:butt;stroke-linejoin:miter;stroke-opacity:1"
       d="m 13.571627,306.59264 0.853191,0.7208 h 2.118265 l -2.177105,-0.73552 z"
       id="path4837"
       inkscape:connector-curvature="0"
       inkscape:export-filename="C:\Users\badaf\ico\toolRoller.png"
       inkscape:export-xdpi="94.879379"
       inkscape:export-ydpi="94.879379" />
    <g
       id="g4843"
       transform="matrix(0.84166094,0,0,0.84166094,10.268818,58.214687)"
       inkscape:export-filename="C:\Users\badaf\ico\toolRoller.png"
       inkscape:export-xdpi="94.879379"
       inkscape:export-ydpi="94.879379">
      <circle
         r="2.1497395"
         cy="292.99347"
         cx="4.2758555"
         id="circle4839"
         style="opacity:1;fill:#dd3f3f;fill-opacity:1;stroke:none;stroke-width:0.1;stroke-miterlimit:4;stroke-dasharray:none;stroke-opacity:1" />
      <path
         inkscape:connector-curvature="0"
         id="path4841"
         d="m 2.190414,292.43272 a 2.1497395,2.1497395 0 0 0 0.08443,1.37848 2.1497395,2.1497395 0 0 0 2.8060604,1.16996 2.1497395,2.1497395 0 0 0 1.2187373,-1.30507 l 0.00131,-0.0145 -3.9742443,-1.27656 z"
         style="fill:#e36c6c;fill-opacity:1;stroke:none;stroke-width:0.26458332px;stroke-linecap:butt;stroke-linejoin:miter;stroke-opacity:1" />
    </g>
    <g
       inkscape:export-ydpi="25.221788"
       inkscape:export-xdpi="25.221788"
       transform="matrix(0.38231335,-0.12943509,0.12943509,0.38231335,-29.270298,197.00055)"
       id="g4630">
      <path
         style="opacity:0.98999999;fill:#4949b3;fill-opacity:1;stroke:#000000;stroke-width:0.07808951;stroke-miterlimit:4;stroke-dasharray:none;stroke-opacity:1"
         d="m 10.286519,279.4433 c 0.906781,0.11698 1.675502,0.47728 2.09028,1.46137 0.120131,0.22753 0.07069,0.29717 -0.06476,0.50983 l -8.7799435,13.78413 c -0.4540732,-1.05896 -1.1526003,-1.97649 -3.2039381,-2.11139 l 9.3408774,-13.38709 c 0.2194652,-0.2373 0.3545982,-0.25603 0.6175022,-0.25687 z"
         id="rect3675"
         inkscape:connector-curvature="0"
         sodipodi:nodetypes="cccccccc" />
      <path
         style="opacity:0.98999999;fill:#fac904;fill-opacity:1;stroke:#000000;stroke-width:0.07808951;stroke-miterlimit:4;stroke-dasharray:none;stroke-opacity:1"
         d="m 0.32816464,293.08722 c 1.79544716,0.0353 2.66941176,0.91742 3.20393876,2.11139 l -3.56980005,1.8584 z"
         id="rect3677"
         inkscape:connector-curvature="0"
         sodipodi:nodetypes="cccc" />
      <path
         sodipodi:nodetypes="cccc"
         inkscape:connector-curvature="0"
         id="path3680"
         d="m 0.17748367,295.02801 c 0.48148426,-0.19018 1.39233293,0.19447 1.69435273,0.99316 l -1.90953305,1.03584 z"
         style="opacity:0.98999999;fill:#1a1a1a;fill-opacity:1;stroke:#000000;stroke-width:0.07808951;stroke-miterlimit:4;stroke-dasharray:none;stroke-opacity:1" />
      <path
         sodipodi:nodetypes="ccccc"
         inkscape:connector-curvature="0"
         id="path3683"
         d="m 10.719313,279.56527 c 0.445653,0.2125 1.009572,0.2514 1.314522,0.88843 l -8.8333281,13.97413 c -0.4053839,-0.5629 -0.9529764,-1.00545 -1.8641717,-1.29478 z"
         style="opacity:0.98999999;fill:#6363f0;fill-opacity:0.99215686;stroke:none;stroke-width:0.07808951;stroke-miterlimit:4;stroke-dasharray:none;stroke-opacity:1" />
    </g>
    <rect
       style="opacity:1;fill:none;fill-opacity:1;stroke:#311d1d;stroke-width:0.1;stroke-miterlimit:4;stroke-dasharray:none;stroke-opacity:1"
       id="rect18156"
       width="8.4666662"
       height="8.4666662"
       x="0"
       y="288.53333" />
    <rect
       y="288.53333"
       x="8.5166664"
       height="8.4666662"
       width="8.4666662"
       id="rect18158"
       style="opacity:1;fill:none;fill-opacity:1;stroke:#311d1d;stroke-width:0.1;stroke-miterlimit:4;stroke-dasharray:none;stroke-opacity:1" />
    <rect
       y="288.53333"
       x="16.983334"
       height="8.4666662"
       width="8.4666662"
       id="rect18160"
       style="opacity:1;fill:none;fill-opacity:1;stroke:#311d1d;stroke-width:0.1;stroke-miterlimit:4;stroke-dasharray:none;stroke-opacity:1" />
    <rect
       y="288.53333"
       x="33.866665"
       height="8.4666662"
       width="8.4666662"
       id="rect18164"
       style="opacity:1;fill:none;fill-opacity:1;stroke:#311d1d;stroke-width:0.1;stroke-miterlimit:4;stroke-dasharray:none;stroke-opacity:1" />
    <path
       style="opacity:1;fill:#dd3f3f;fill-opacity:1;stroke:none;stroke-width:0.08992893;stroke-miterlimit:4;stroke-dasharray:none;stroke-opacity:1"
       d="M 0.84537604,289.41478 H 7.8428933 v 6.79609 H 0.84537604 Z"
       id="rect18166"
       inkscape:connector-curvature="0" />
    <path
       style="opacity:1;fill:#dd3f3f;fill-opacity:1;stroke:none;stroke-width:0.08992893;stroke-miterlimit:4;stroke-dasharray:none;stroke-opacity:1"
       d="m 9.2756959,289.33174 v 1.69809 h 2.4975221 v 3.50573 H 9.2756959 v 1.59215 h 6.9975061 v -1.62522 H 13.86663 v -3.50573 h 2.406572 v -1.66502 z"
       id="path18171"
       inkscape:connector-curvature="0" />
    <path
       style="fill:#e36c6c;fill-opacity:1;stroke:none;stroke-width:0.26458332px;stroke-linecap:butt;stroke-linejoin:miter;stroke-opacity:1"
       d="m 9.2756959,296.12771 v -1.59215 h 2.4975221 l -0.0026,-1.35599 2.083594,0.66146 0.0124,0.66145 h 2.406571 v 1.62523 z"
       id="path18179"
       inkscape:connector-curvature="0" />
    <path
       style="fill:#e36c6c;stroke:none;stroke-width:0.26458332px;stroke-linecap:butt;stroke-linejoin:miter;stroke-opacity:1;fill-opacity:1"
       d="m 0.84537602,296.21087 0.0145198,-3.7088 6.94531238,1.62057 0.037685,2.08823 z"
       id="path18183"
       inkscape:connector-curvature="0" />
    <g
       id="g18195"
       transform="matrix(0.51494001,0,0,0.51494001,10.007245,141.23578)">
      <path
         style="fill:none;stroke:#e36c6c;stroke-width:1.94197381;stroke-linecap:butt;stroke-linejoin:miter;stroke-miterlimit:4;stroke-dasharray:none;stroke-opacity:1"
         d="m 15.324839,302.44462 c -0.119351,-1.62655 -1.865273,-11.75888 7.419852,-11.24473"
         id="path18202"
         inkscape:connector-curvature="0"
         sodipodi:nodetypes="cc" />
      <path
         style="opacity:1;fill:#dd3f3f;fill-opacity:1;stroke:none;stroke-width:0.17878732;stroke-miterlimit:4;stroke-dasharray:none;stroke-opacity:1"
         d="m 20.645217,286.40033 a 5.8117777,5.477287 0 0 0 -5.813036,5.47672 5.8117777,5.477287 0 0 0 5.813036,5.47814 5.8117777,5.477287 0 0 0 5.811611,-5.47814 5.8117777,5.477287 0 0 0 -5.811611,-5.47672 z m 0,2.03934 a 3.6484405,3.4384582 0 0 1 3.648289,3.43738 3.6484405,3.4384582 0 0 1 -3.648289,3.4388 3.6484405,3.4384582 0 0 1 -3.649714,-3.4388 3.6484405,3.4384582 0 0 1 3.649714,-3.43738 z"
         id="ellipse18191"
         inkscape:connector-curvature="0" />
      <path
         style="fill:none;stroke:#e36c6c;stroke-width:1.94197381;stroke-linecap:butt;stroke-linejoin:miter;stroke-miterlimit:4;stroke-dasharray:none;stroke-opacity:1"
         d="m 21.39593,291.19989 c 7.778819,0.21817 6.947879,-3.98863 7.015743,-5.08825"
         id="path18204"
         inkscape:connector-curvature="0"
         sodipodi:nodetypes="cc" />
      <rect
         style="opacity:1;fill:#dd3f3f;fill-opacity:1;stroke:none;stroke-width:2.26528287;stroke-miterlimit:4;stroke-dasharray:none;stroke-opacity:1"
         id="rect18211"
         width="4.2611394"
         height="8.0483227"
         x="-124.49532"
         y="273.97791"
         ry="1.4548892"
         transform="matrix(0.89450693,-0.44705408,0.48150006,0.87644606,0,0)" />
      <path
         style="fill:#e36c6c;fill-opacity:1;stroke:none;stroke-width:0.51381391px;stroke-linecap:butt;stroke-linejoin:miter;stroke-opacity:1"
         d="m 22.273431,298.90134 1.573411,2.83931 c 0.418865,0.46969 0.916288,0.746 1.612239,0.53363 0.56653,-0.14482 1.052325,-0.49148 1.578177,-0.73799 0.656921,-0.41576 0.757263,-0.97067 0.647166,-1.57818 l -0.420091,-0.78341 z"
         id="path23837"
         inkscape:connector-curvature="0"
         sodipodi:nodetypes="ccccccc" />
    </g>
    <rect
       style="opacity:1;fill:none;fill-opacity:1;stroke:#311d1d;stroke-width:0.1;stroke-miterlimit:4;stroke-dasharray:none;stroke-opacity:1"
       id="rect25465"
       width="8.4666662"
       height="8.4666662"
       x="25.39999"
       y="288.53333" />
    <rect
       style="opacity:1;fill:#dd3f3f;fill-opacity:1;stroke:none;stroke-width:1.31356478;stroke-miterlimit:4;stroke-dasharray:none;stroke-opacity:1"
       id="rect25467"
       width="3.9090581"
       height="6.0336094"
       x="25.613152"
       y="290.60687"
       ry="0" />
    <path
       sodipodi:nodetypes="ccccc"
       inkscape:connector-curvature="0"
       id="path25846"
       d="m 28.570946,290.60687 c 1.671394,0.61355 2.82895,0.37126 3.909059,0 -0.658026,2.10753 -0.61261,4.49671 -2.695904,6.03361 h -3.909059 c 1.440367,-1.80614 2.565159,-3.73174 2.695904,-6.03361 z"
       style="opacity:1;fill:#e1c9c9;fill-opacity:1;stroke:none;stroke-width:1.31356478;stroke-miterlimit:4;stroke-dasharray:none;stroke-opacity:1" />
    <path
       sodipodi:nodetypes="ccccc"
       inkscape:connector-curvature="0"
       id="path25844"
       d="m 29.26992,290.60687 c 1.671394,0.61355 2.82895,0.37126 3.909059,0 -0.658026,2.10753 -0.61261,4.49671 -2.695904,6.03361 h -3.909059 c 1.440367,-1.80614 2.565159,-3.73174 2.695904,-6.03361 z"
       style="opacity:1;fill:#eea3a3;fill-opacity:1;stroke:none;stroke-width:1.31356478;stroke-miterlimit:4;stroke-dasharray:none;stroke-opacity:1" />
    <path
       style="opacity:1;fill:#e36c6c;fill-opacity:1;stroke:none;stroke-width:1.31356478;stroke-miterlimit:4;stroke-dasharray:none;stroke-opacity:1"
       d="m 29.778264,290.60687 c 1.671395,0.61355 2.828951,0.37126 3.90906,0 -0.658027,2.10753 -0.612611,4.49671 -2.695904,6.03361 h -3.90906 c 1.440368,-1.80614 2.56516,-3.73174 2.695904,-6.03361 z"
       id="rect25471"
       inkscape:connector-curvature="0"
       sodipodi:nodetypes="ccccc" />
    <path
       style="fill:none;stroke:#dd3f3f;stroke-width:0.5;stroke-linecap:butt;stroke-linejoin:miter;stroke-miterlimit:4;stroke-dasharray:none;stroke-opacity:1;marker-end:url(#marker23879)"
       d="m 28.077973,289.95206 3.741774,-0.0468"
       id="path25474"
       inkscape:connector-curvature="0"
       sodipodi:nodetypes="cc" />
    <rect
       style="opacity:1;fill:#e36c6c;fill-opacity:1;stroke:none;stroke-width:0.46202397;stroke-miterlimit:4;stroke-dasharray:none;stroke-opacity:1"
       id="rect25794"
       width="5.9905643"
       height="7.0625973"
       x="35.173645"
       y="289.23013"
       ry="0.7606771" />
    <g
       id="g25860"
       style="fill:#eea3a3;fill-opacity:1"
       transform="matrix(0.85386459,0,0,1,5.6201913,-0.09921875)">
      <rect
         style="opacity:1;fill:#eea3a3;fill-opacity:1;stroke:none;stroke-width:0.71609527;stroke-miterlimit:4;stroke-dasharray:none;stroke-opacity:1"
         id="rect25820"
         width="5.7062049"
         height="2.1515195"
         x="35.351048"
         y="290.16254"
         ry="0.36380208" />
      <rect
         y="292.73502"
         x="35.351048"
         height="0.81851292"
         width="1.141241"
         id="rect25822"
         style="opacity:1;fill:#eea3a3;fill-opacity:1;stroke:none;stroke-width:0.19752675;stroke-miterlimit:4;stroke-dasharray:none;stroke-opacity:1" />
      <rect
         style="opacity:1;fill:#eea3a3;fill-opacity:1;stroke:none;stroke-width:0.19752675;stroke-miterlimit:4;stroke-dasharray:none;stroke-opacity:1"
         id="rect25824"
         width="1.141241"
         height="0.81851292"
         x="36.871143"
         y="292.71164" />
      <rect
         y="292.71164"
         x="38.414623"
         height="0.81851292"
         width="1.141241"
         id="rect25826"
         style="opacity:1;fill:#eea3a3;fill-opacity:1;stroke:none;stroke-width:0.19752675;stroke-miterlimit:4;stroke-dasharray:none;stroke-opacity:1" />
      <rect
         style="opacity:1;fill:#eea3a3;fill-opacity:1;stroke:none;stroke-width:0.19752675;stroke-miterlimit:4;stroke-dasharray:none;stroke-opacity:1"
         id="rect25828"
         width="1.141241"
         height="0.81851292"
         x="35.351048"
         y="293.81079" />
      <rect
         y="293.81079"
         x="36.871143"
         height="0.81851292"
         width="1.141241"
         id="rect25830"
         style="opacity:1;fill:#eea3a3;fill-opacity:1;stroke:none;stroke-width:0.19752675;stroke-miterlimit:4;stroke-dasharray:none;stroke-opacity:1" />
      <rect
         style="opacity:1;fill:#eea3a3;fill-opacity:1;stroke:none;stroke-width:0.19752675;stroke-miterlimit:4;stroke-dasharray:none;stroke-opacity:1"
         id="rect25832"
         width="1.141241"
         height="0.81851292"
         x="38.438011"
         y="293.78741" />
      <rect
         y="294.9567"
         x="35.374435"
         height="0.81851292"
         width="1.141241"
         id="rect25834"
         style="opacity:1;fill:#eea3a3;fill-opacity:1;stroke:none;stroke-width:0.19752675;stroke-miterlimit:4;stroke-dasharray:none;stroke-opacity:1" />
      <rect
         style="opacity:1;fill:#eea3a3;fill-opacity:1;stroke:none;stroke-width:0.19752675;stroke-miterlimit:4;stroke-dasharray:none;stroke-opacity:1"
         id="rect25836"
         width="1.141241"
         height="0.81851292"
         x="36.894531"
         y="294.9567" />
      <rect
         y="294.93332"
         x="38.461399"
         height="0.81851292"
         width="1.141241"
         id="rect25838"
         style="opacity:1;fill:#eea3a3;fill-opacity:1;stroke:none;stroke-width:0.19752675;stroke-miterlimit:4;stroke-dasharray:none;stroke-opacity:1" />
      <rect
         style="opacity:1;fill:#eea3a3;fill-opacity:1;stroke:none;stroke-width:0.5;stroke-miterlimit:4;stroke-dasharray:none;stroke-opacity:1"
         id="rect25840"
         width="1.1926903"
         height="1.9644309"
         x="39.864559"
         y="292.64148" />
      <rect
         style="opacity:1;fill:#eea3a3;fill-opacity:1;stroke:none;stroke-width:0.19752675;stroke-miterlimit:4;stroke-dasharray:none;stroke-opacity:1"
         id="rect25842"
         width="1.141241"
         height="0.81851292"
         x="39.911335"
         y="294.90994" />
    </g>
    <g
       id="g25874"
       style="fill:#dd3f3f;fill-opacity:1">
      <rect
         y="289.97849"
         x="35.692829"
         height="2.1515195"
         width="4.8723264"
         id="rect25796"
         style="opacity:1;fill:#ffe4e4;fill-opacity:1;stroke:none;stroke-width:0.66170633;stroke-miterlimit:4;stroke-dasharray:none;stroke-opacity:1"
         ry="0.46302083" />
      <rect
         style="opacity:1;fill:#dd3f3f;fill-opacity:1;stroke:none;stroke-width:0.18252419;stroke-miterlimit:4;stroke-dasharray:none;stroke-opacity:1"
         id="rect25798"
         width="0.97446525"
         height="0.81851292"
         x="35.692829"
         y="292.55096" />
      <rect
         y="292.52759"
         x="36.990784"
         height="0.81851292"
         width="0.97446525"
         id="rect25800"
         style="opacity:1;fill:#dd3f3f;fill-opacity:1;stroke:none;stroke-width:0.18252419;stroke-miterlimit:4;stroke-dasharray:none;stroke-opacity:1" />
      <rect
         style="opacity:1;fill:#dd3f3f;fill-opacity:1;stroke:none;stroke-width:0.18252419;stroke-miterlimit:4;stroke-dasharray:none;stroke-opacity:1"
         id="rect25802"
         width="0.97446525"
         height="0.81851292"
         x="38.308708"
         y="292.52759" />
      <rect
         y="293.62674"
         x="35.692829"
         height="0.81851292"
         width="0.97446525"
         id="rect25804"
         style="opacity:1;fill:#dd3f3f;fill-opacity:1;stroke:none;stroke-width:0.18252419;stroke-miterlimit:4;stroke-dasharray:none;stroke-opacity:1" />
      <rect
         style="opacity:1;fill:#dd3f3f;fill-opacity:1;stroke:none;stroke-width:0.18252419;stroke-miterlimit:4;stroke-dasharray:none;stroke-opacity:1"
         id="rect25806"
         width="0.97446525"
         height="0.81851292"
         x="36.990784"
         y="293.62674" />
      <rect
         y="293.60336"
         x="38.328678"
         height="0.81851292"
         width="0.97446525"
         id="rect25808"
         style="opacity:1;fill:#dd3f3f;fill-opacity:1;stroke:none;stroke-width:0.18252419;stroke-miterlimit:4;stroke-dasharray:none;stroke-opacity:1" />
      <rect
         style="opacity:1;fill:#dd3f3f;fill-opacity:1;stroke:none;stroke-width:0.18252419;stroke-miterlimit:4;stroke-dasharray:none;stroke-opacity:1"
         id="rect25810"
         width="0.97446525"
         height="0.81851292"
         x="35.712799"
         y="294.77264" />
      <rect
         y="294.77264"
         x="37.010754"
         height="0.81851292"
         width="0.97446525"
         id="rect25812"
         style="opacity:1;fill:#dd3f3f;fill-opacity:1;stroke:none;stroke-width:0.18252419;stroke-miterlimit:4;stroke-dasharray:none;stroke-opacity:1" />
      <rect
         style="opacity:1;fill:#dd3f3f;fill-opacity:1;stroke:none;stroke-width:0.18252419;stroke-miterlimit:4;stroke-dasharray:none;stroke-opacity:1"
         id="rect25814"
         width="0.97446525"
         height="0.81851292"
         x="38.348648"
         y="294.74927" />
      <rect
         y="292.45743"
         x="39.546757"
         height="1.9644309"
         width="1.018396"
         id="rect25816"
         style="opacity:1;fill:#dd3f3f;fill-opacity:1;stroke:none;stroke-width:0.46202397;stroke-miterlimit:4;stroke-dasharray:none;stroke-opacity:1" />
      <rect
         y="294.72589"
         x="39.586697"
         height="0.81851292"
         width="0.97446525"
         id="rect25818"
         style="opacity:1;fill:#dd3f3f;fill-opacity:1;stroke:none;stroke-width:0.18252419;stroke-miterlimit:4;stroke-dasharray:none;stroke-opacity:1" />
    </g>
  </g>
</svg>
